<svg viewBox="0 0 1024 1024" version="1.1" xmlns="http://www.w3.org/2000/svg"><path d="M693.814432 567.088253a133.005296 133.005296 0 0 0-100.081926 45.481604l-62.711181-44.409755c6.655064-18.34942 10.494524-38.010655 10.494524-58.615757 0-20.26915-3.679483-39.594432-10.110578-57.687887l62.583199-43.929823a132.973301 132.973301 0 0 0 99.873956 45.209643c73.589651 0 133.485229-59.847584 133.485228-133.485229 0-73.621647-59.895577-133.485229-133.485228-133.485229a133.613211 133.613211 0 0 0-127.950007 171.415895l-62.615195 43.94582a172.503742 172.503742 0 0 0-106.73699-61.991282v-75.461389a133.709197 133.709197 0 0 0 106.001093-130.589635C502.561327 59.847584 442.66575 0 369.076099 0s-133.437235 59.847584-133.437236 133.485229a133.597213 133.597213 0 0 0 103.617429 129.981721v76.453249a172.567733 172.567733 0 0 0-142.523957 169.624146 172.567733 172.567733 0 0 0 143.771782 169.832118v80.70865a133.661204 133.661204 0 0 0-104.81726 130.285679C235.638863 964.008436 295.486447 1023.85602 369.076099 1023.85602s133.485229-59.847584 133.485228-133.485228a133.613211 133.613211 0 0 0-104.81726-130.285679v-80.70865a172.439751 172.439751 0 0 0 104.945242-61.047416l63.143121 44.697715a132.877314 132.877314 0 0 0-5.455233 37.54672c0 73.589651 59.895577 133.485229 133.485229 133.485228s133.485229-59.847584 133.485228-133.485228-59.94357-133.485229-133.533222-133.485229z m0-312.116108a64.790889 64.790889 0 0 1 64.7109 64.726897 64.790889 64.790889 0 0 1-64.7109 64.7109 64.822884 64.822884 0 0 1-64.7109-64.7109 64.822884 64.822884 0 0 1 64.7109-64.7109zM304.365199 133.501226a64.790889 64.790889 0 0 1 64.7109-64.7109 64.790889 64.790889 0 0 1 64.726897 64.7109 64.790889 64.790889 0 0 1-64.726897 64.7109 64.790889 64.790889 0 0 1-64.7109-64.7109z m129.4218 756.885563a64.790889 64.790889 0 0 1-64.7109 64.7109 64.790889 64.790889 0 0 1-64.7109-64.7109 64.790889 64.790889 0 0 1 64.7109-64.7109 64.790889 64.790889 0 0 1 64.726897 64.7109z m-64.7109-290.567139a90.355294 90.355294 0 0 1-90.259308-90.259307 90.355294 90.355294 0 0 1 90.259308-90.275305 90.355294 90.355294 0 0 1 90.275305 90.275305 90.355294 90.355294 0 0 1-90.275305 90.259307z m324.738333 165.48073a64.790889 64.790889 0 0 1-64.7109-64.7109 64.790889 64.790889 0 0 1 64.7109-64.7109 64.790889 64.790889 0 0 1 64.7109 64.7109 64.790889 64.790889 0 0 1-64.7109 64.7109z" fill="#000000" data-spm-anchor-id="a313x.collections_detail.i1.i3.5e853a814oPgIy"></path></svg>