<?xml version="1.0" standalone="no"?><!DOCTYPE svg PUBLIC "-//W3C//DTD SVG 1.1//EN" "http://www.w3.org/Graphics/SVG/1.1/DTD/svg11.dtd"><svg height="600" node-id="1" sillyvg="true" template-height="600" template-width="600" version="1.1" viewBox="0 0 600 600" width="600" xmlns="http://www.w3.org/2000/svg" xmlns:xlink="http://www.w3.org/1999/xlink"><defs node-id="56"></defs><path d="M 0.86 -1.11 L 600.86 -1.11 L 600.86 598.89 L 0.86 598.89 Z" fill="#ffffff" fill-rule="nonzero" node-id="58" stroke="none" target-height="600" target-width="600" target-x="0.86" target-y="-1.11"></path><g node-id="159"><g node-id="160"><path d="M 300.86 488.12 C 220.40 488.12 139.95 488.11 59.49 488.18 C 57.23 488.18 56.72 487.67 56.72 485.42 C 56.78 361.08 56.78 236.73 56.72 112.39 C 56.72 110.13 57.23 109.63 59.48 109.63 C 220.39 109.69 381.31 109.69 542.22 109.63 C 544.48 109.63 544.99 110.14 544.99 112.39 C 544.93 236.73 544.93 361.08 544.99 485.42 C 544.99 487.68 544.48 488.19 542.22 488.18 C 461.77 488.11 381.31 488.12 300.86 488.12 Z" fill="#ffffff" fill-rule="nonzero" group-id="1,2" node-id="63" stroke="none" target-height="378.56" target-width="488.27" target-x="56.72" target-y="109.63"></path><path d="M 192.08 425.44 C 192.10 425.34 192.09 425.19 192.15 425.15 C 196.02 422.67 193.60 420.57 191.94 418.11 C 185.13 408.02 179.54 397.23 175.72 385.71 C 174.28 381.36 172.25 376.94 172.05 372.37 C 171.92 369.43 169.32 366.83 171.00 363.77 C 167.80 358.41 169.02 352.26 168.11 346.51 C 167.03 339.61 168.31 332.59 169.15 325.67 C 169.71 320.98 170.49 316.31 171.51 311.70 C 173.02 304.85 175.20 298.19 177.80 291.67 C 178.72 289.36 179.78 287.12 180.67 284.80 C 181.74 282.04 184.34 280.12 184.77 276.94 C 184.91 275.92 185.83 274.79 187.38 274.37 C 188.75 274.00 189.73 272.79 189.85 271.02 C 190.03 268.27 191.12 265.97 193.29 264.03 C 195.58 261.99 195.32 259.86 192.25 257.25 C 190.09 255.41 188.83 252.89 186.72 251.08 C 187.04 248.70 189.41 248.30 190.85 247.14 C 195.36 243.50 199.67 239.71 203.60 235.44 C 205.12 233.79 206.51 231.86 208.87 231.19 C 209.19 233.05 212.48 233.66 211.00 236.27 C 212.55 236.95 213.66 238.13 214.86 239.28 C 215.25 239.66 216.64 238.91 217.37 238.09 C 220.15 234.94 223.79 232.87 227.22 230.56 C 228.98 229.38 230.32 227.44 232.72 227.29 C 232.81 227.47 232.93 227.63 232.97 227.81 C 233.17 228.94 230.86 228.10 231.64 229.22 C 232.36 230.25 233.16 228.95 233.86 228.52 C 235.15 227.72 236.62 227.28 236.57 225.12 C 236.55 224.05 238.29 223.27 239.46 222.90 C 241.61 222.22 243.38 219.56 246.11 221.42 C 246.18 221.47 246.47 221.27 246.60 221.13 C 251.49 215.66 258.89 215.45 264.94 212.43 C 266.09 212.08 267.36 211.98 268.13 210.86 C 269.58 210.65 271.02 210.37 272.47 210.26 C 273.11 210.21 274.44 210.08 273.60 211.44 C 271.90 214.19 274.95 213.27 275.57 213.64 C 276.67 214.28 277.15 212.85 277.03 211.97 C 276.70 209.46 278.03 209.18 280.12 208.81 C 285.94 207.79 291.77 207.32 297.67 207.16 C 301.46 207.06 305.11 207.10 308.78 208.12 C 309.60 208.35 310.82 208.00 311.85 207.52 C 313.46 206.77 314.09 210.67 314.53 209.20 C 315.19 206.99 316.40 208.05 317.27 207.86 C 318.04 207.70 318.96 208.21 320.21 208.53 C 316.77 209.82 317.49 211.61 319.29 213.58 C 320.65 213.06 319.86 211.64 320.40 210.71 C 322.13 207.73 324.69 208.85 326.90 209.26 C 330.59 209.94 334.17 211.17 337.85 211.91 C 339.70 212.29 340.18 212.83 339.01 214.39 C 338.48 215.10 338.20 215.84 339.06 216.47 C 339.84 217.04 340.60 216.36 340.86 215.92 C 342.50 213.04 344.20 214.24 346.59 215.06 C 348.31 215.65 349.85 216.96 351.97 216.91 C 353.57 216.87 354.24 218.52 353.81 221.03 C 355.28 218.42 356.34 218.27 358.17 219.78 C 360.11 221.37 362.26 222.79 364.35 224.19 C 365.49 224.95 367.23 225.52 368.69 226.03 C 372.42 227.32 375.46 229.19 378.20 232.13 C 379.43 233.45 381.98 233.58 382.05 236.17 C 384.19 234.54 384.99 236.87 386.25 237.65 C 387.94 238.70 389.01 240.43 390.37 241.81 C 391.87 243.32 393.91 244.34 395.38 246.00 C 395.80 246.48 396.28 245.92 396.63 245.59 C 397.95 244.39 399.26 243.17 400.57 241.96 C 402.01 242.10 402.77 243.22 403.67 244.12 C 405.77 246.24 407.32 249.19 409.96 250.44 C 414.31 252.50 416.86 256.25 420.00 259.47 C 421.35 260.85 423.29 261.74 423.77 263.88 C 421.50 266.24 419.20 268.59 416.96 270.98 C 415.61 272.43 415.54 276.47 417.64 277.69 C 420.03 279.09 420.63 281.46 421.62 283.29 C 423.61 286.96 425.61 290.75 426.35 295.08 C 426.95 298.59 429.07 301.73 429.79 305.30 C 430.78 310.24 433.70 314.83 432.39 320.18 C 432.16 321.10 433.60 321.46 433.21 322.50 C 432.33 323.20 431.34 322.02 429.70 322.99 C 431.14 323.29 430.91 325.61 432.94 324.07 C 433.10 323.95 433.08 323.40 433.44 323.78 C 433.61 323.96 433.60 324.34 433.62 324.64 C 433.82 328.39 434.91 332.00 434.55 335.88 C 434.27 338.95 434.77 342.13 434.58 345.28 C 434.00 355.14 433.00 364.97 430.40 374.50 C 427.36 385.66 423.14 396.44 417.47 406.56 C 414.36 412.11 410.93 417.46 407.02 422.51 C 405.62 424.32 404.26 425.45 401.93 423.70 C 405.61 428.57 399.18 429.37 399.05 432.57 C 403.84 435.62 409.13 438.34 413.98 441.85 C 417.09 444.10 420.08 447.35 423.28 448.35 C 426.49 449.36 428.77 451.56 431.11 453.10 C 434.30 455.19 438.22 456.32 440.87 459.32 C 442.29 460.93 444.08 462.17 445.60 463.75 C 447.64 465.87 446.88 467.31 445.55 468.90 C 444.30 470.39 443.28 472.28 440.52 470.99 C 437.26 469.47 434.57 467.14 431.52 465.33 C 423.37 460.51 415.65 455.01 407.53 450.11 C 402.44 447.03 397.46 443.72 392.47 440.45 C 389.98 438.81 389.24 440.81 387.99 441.98 C 386.12 443.73 388.39 443.94 389.06 444.39 C 396.39 449.39 403.77 454.32 411.16 459.23 C 415.31 461.98 419.50 464.67 423.66 467.39 C 427.56 469.94 431.47 472.48 435.92 475.39 C 432.29 476.56 429.61 478.17 427.03 479.93 C 425.57 480.93 424.44 480.06 423.46 479.43 C 417.19 475.41 410.99 471.27 404.78 467.15 C 403.17 466.08 401.27 465.49 399.93 463.95 C 398.93 462.79 397.30 462.81 396.18 463.35 C 395.27 463.78 394.88 463.84 394.40 463.10 C 393.73 462.06 394.83 462.43 395.17 462.15 C 396.15 461.34 395.16 460.85 394.70 460.62 C 390.07 458.32 386.38 454.44 381.64 452.49 C 379.68 451.68 377.04 450.17 374.63 452.65 C 373.56 453.75 373.67 454.29 374.75 454.76 C 377.65 456.03 379.39 459.55 383.32 458.97 C 384.41 458.81 383.18 460.85 384.74 461.56 C 387.50 462.82 389.91 464.83 392.56 466.36 C 393.19 466.72 393.67 467.11 394.15 467.60 C 395.48 468.96 396.92 469.55 398.57 468.07 C 399.00 467.68 399.44 467.12 400.09 467.72 C 400.60 468.19 400.65 469.12 400.35 469.37 C 397.94 471.34 400.49 471.74 401.37 472.33 C 406.94 476.12 412.58 479.79 418.77 483.89 C 416.16 483.54 415.02 485.22 413.43 485.98 C 411.41 486.95 409.75 486.73 407.81 485.69 C 404.82 484.10 402.11 482.03 399.33 480.19 C 397.26 478.82 394.91 477.51 393.09 475.46 C 391.65 473.84 388.99 473.50 387.04 472.12 C 380.69 467.65 374.12 463.48 368.24 458.40 C 366.94 457.28 366.15 457.51 365.17 458.13 C 360.12 461.38 354.78 464.03 349.08 465.89 C 340.59 468.65 332.33 472.29 323.27 473.04 C 322.51 473.10 321.78 473.67 321.02 473.72 C 319.91 473.78 318.50 473.84 319.55 471.47 C 317.89 475.58 314.26 474.61 311.68 474.88 C 309.35 475.12 306.02 477.09 303.89 473.04 C 303.75 475.14 302.82 475.39 301.08 475.56 C 295.98 476.05 290.91 475.40 286.08 474.44 C 283.37 473.90 280.81 474.62 278.13 473.92 C 275.26 473.17 272.05 472.93 269.52 471.58 C 267.13 470.31 263.99 471.48 262.04 468.52 C 261.12 467.13 260.25 467.71 260.16 465.96 C 254.75 468.88 250.66 465.99 246.70 462.89 C 245.26 461.77 243.55 462.01 242.10 461.45 C 239.03 460.25 235.80 459.07 233.90 455.94 C 233.36 455.06 232.21 456.24 231.15 455.56 C 228.08 453.60 225.00 451.63 222.20 449.31 C 220.80 448.15 219.80 448.07 218.62 449.29 C 214.67 453.39 210.71 457.49 206.79 461.63 C 202.02 466.67 197.39 471.85 192.51 476.77 C 190.13 479.17 187.25 477.64 184.92 476.48 C 183.74 475.89 182.62 475.53 181.25 475.29 C 181.64 473.03 183.69 472.18 184.84 470.66 C 185.71 469.52 187.27 468.80 186.97 466.95 C 186.92 466.65 187.31 466.00 187.50 465.99 C 191.62 465.94 192.68 462.07 194.99 459.87 C 199.85 455.22 204.41 450.25 209.07 445.40 C 209.76 444.69 210.38 443.91 210.96 443.10 C 211.71 442.05 212.53 441.75 213.70 442.69 C 212.51 440.50 210.28 439.67 208.66 438.17 C 208.04 437.59 207.87 438.27 207.56 438.60 C 202.89 443.50 198.34 448.52 193.50 453.25 C 188.09 458.54 182.87 464.02 177.67 469.51 C 176.86 470.36 176.49 469.65 175.94 469.40 C 174.88 468.89 174.10 469.15 173.39 470.12 C 172.92 470.77 171.88 471.44 171.37 470.82 C 169.77 468.85 171.31 472.19 170.50 471.29 C 167.66 470.74 165.19 469.55 163.21 467.21 C 171.01 468.38 173.94 462.45 177.68 457.78 C 177.90 457.51 177.89 457.11 178.31 456.88 C 183.34 454.10 185.14 452.27 189.60 446.24 C 190.30 445.29 191.93 445.09 192.84 444.23 C 195.68 441.56 198.50 438.85 201.08 435.93 C 202.50 434.32 203.54 432.88 205.74 434.81 C 204.53 433.42 203.27 432.07 202.13 430.62 C 201.27 429.53 200.40 429.82 199.62 430.51 C 195.19 434.45 190.83 438.47 186.37 442.38 C 185.35 443.27 185.10 444.33 184.88 445.51 L 184.92 445.46 C 183.58 444.83 182.97 445.88 182.13 446.58 C 175.05 452.51 168.73 459.25 161.96 465.52 C 160.11 467.23 158.96 466.85 157.53 465.36 C 155.59 463.35 154.84 460.34 156.36 459.25 C 160.71 456.12 163.12 450.72 168.60 448.94 C 169.56 448.63 169.38 447.40 170.22 446.70 C 174.75 442.90 178.32 438.10 183.24 434.60 C 184.52 433.69 185.90 431.66 187.04 430.01 C 187.92 428.73 188.92 428.77 190.10 429.37 C 190.70 429.68 191.13 431.01 191.96 429.85 C 192.55 429.02 191.93 428.33 191.12 427.98 C 190.31 427.62 190.29 427.25 190.94 426.73 C 191.25 426.21 193.12 427.10 192.08 425.44 Z" fill="#f5c620" fill-rule="nonzero" group-id="1,2" node-id="65" stroke="none" target-height="280.18" target-width="292.80002" target-x="154.84" target-y="206.77"></path><path d="M 393.42 207.95 C 397.36 203.16 402.04 199.48 408.18 197.89 C 409.49 197.55 410.76 196.63 411.70 195.93 C 415.00 193.47 418.80 192.99 422.54 192.43 C 431.50 191.09 440.18 191.82 448.39 196.24 C 450.82 197.55 453.08 199.05 455.40 200.51 C 457.09 201.57 458.17 202.74 456.56 205.41 C 459.47 204.02 460.32 205.55 461.64 207.18 C 465.90 212.46 467.95 218.56 469.00 225.06 C 469.27 226.71 469.49 228.40 469.66 230.06 C 469.86 232.01 469.55 234.01 469.55 235.99 C 469.55 238.09 467.84 235.90 467.31 237.21 C 471.00 239.56 468.98 243.00 468.09 245.76 C 465.45 253.89 463.25 262.30 457.16 268.87 C 456.01 270.11 455.02 271.22 453.19 271.04 C 450.86 271.30 449.12 269.84 447.54 268.63 C 444.18 266.07 440.99 263.34 438.20 260.03 C 429.43 249.66 420.37 239.47 410.05 230.65 C 405.99 227.18 404.05 222.33 400.15 218.89 C 397.64 216.67 395.58 213.86 393.71 211.02 C 393.20 210.21 391.49 209.14 393.42 207.95 Z" fill="#119b74" fill-rule="nonzero" group-id="1,2" node-id="67" stroke="none" target-height="80.20999" target-width="79.51001" target-x="391.49" target-y="191.09"></path><path d="M 155.24 256.59 C 153.68 256.96 152.17 256.30 151.52 255.18 C 149.73 252.08 147.56 249.04 147.59 245.20 C 147.60 243.79 145.76 243.40 145.86 241.87 C 146.09 238.32 143.68 235.07 145.01 231.24 C 145.46 229.94 143.74 227.96 143.84 226.14 C 144.36 216.13 145.89 206.44 153.12 198.69 C 157.63 193.86 162.89 190.05 169.34 188.52 C 171.79 187.94 174.13 186.13 177.10 187.29 C 177.95 187.62 179.72 186.41 181.10 186.65 C 183.28 187.03 186.04 185.50 187.52 188.40 C 187.77 188.90 187.98 188.59 188.09 188.42 C 189.25 186.52 190.79 187.94 192.15 187.97 C 196.07 188.06 199.09 190.80 202.77 191.65 C 203.34 191.78 204.14 192.54 204.19 193.06 C 204.36 195.11 205.20 195.44 206.94 194.59 C 207.29 194.42 208.18 194.57 208.33 194.84 C 210.44 198.74 215.40 199.01 217.89 202.40 C 216.43 206.99 213.51 210.61 210.12 213.90 C 207.15 216.78 203.35 218.93 201.97 223.20 C 201.92 223.35 201.83 223.44 201.80 223.44 C 198.67 223.87 197.35 226.88 194.90 228.25 C 189.39 231.34 184.49 235.19 180.07 239.68 C 178.80 240.97 177.08 241.58 175.71 242.77 C 171.11 246.77 166.43 250.67 161.88 254.72 C 159.96 256.39 157.75 257.03 155.24 256.59 Z" fill="#119b74" fill-rule="nonzero" group-id="1,2" node-id="69" stroke="none" target-height="71.53" target-width="74.21001" target-x="143.68" target-y="185.5"></path><path d="M 537.79 158.91 C 538.46 158.99 539.13 159.07 540.20 159.20 C 538.09 161.07 536.34 162.77 534.27 164.15 C 530.54 166.64 526.93 169.31 523.19 171.80 C 522.24 172.43 521.86 172.74 522.49 173.94 C 524.03 176.89 526.04 179.44 528.24 181.90 C 530.93 184.90 531.96 188.44 531.00 192.37 C 530.23 195.52 527.44 197.04 524.91 198.23 C 520.00 200.53 514.82 202.20 509.59 203.79 C 504.07 205.47 498.50 206.81 492.92 208.12 C 488.66 209.12 484.27 209.56 479.93 210.18 C 479.21 210.28 478.11 210.60 477.80 209.68 C 477.46 208.67 478.69 208.59 479.25 208.10 C 479.45 207.93 479.53 207.63 479.73 207.26 C 479.23 207.23 478.62 207.05 478.49 207.22 C 477.14 208.97 475.71 209.31 473.45 208.64 C 472.19 208.27 470.57 208.62 469.91 207.22 C 469.26 205.83 469.28 203.99 470.60 203.07 C 473.94 200.75 477.49 198.73 481.48 197.69 C 481.62 197.65 481.82 197.87 481.99 197.98 C 482.74 194.72 486.00 195.75 487.97 194.55 C 492.48 191.78 497.21 189.40 501.84 186.82 C 502.53 186.44 504.13 186.57 503.65 185.43 C 503.17 184.26 503.30 182.51 501.97 181.97 C 498.22 180.44 496.22 177.17 495.93 173.77 C 495.78 172.04 494.18 167.67 498.86 167.29 C 503.58 161.34 511.10 161.28 517.38 158.63 C 521.83 156.75 526.28 154.74 531.06 153.69 C 532.56 154.04 533.63 153.21 534.71 152.38 C 536.75 150.39 539.48 149.98 542.00 150.10 C 544.51 150.22 543.94 152.51 543.29 154.03 C 542.66 155.51 541.66 156.82 542.18 159.33 C 540.69 157.61 539.57 157.44 538.38 158.32 C 537.96 158.21 537.48 157.91 537.18 158.43 C 537.09 158.58 537.59 158.73 537.79 158.91 Z" fill="#f5c620" fill-rule="nonzero" group-id="1,2" node-id="71" stroke="none" target-height="60.62001" target-width="75.25" target-x="469.26" target-y="149.98"></path><path d="M 113.01 347.65 C 111.76 350.50 110.75 353.79 108.27 356.12 C 106.67 357.63 106.92 358.48 108.25 359.83 C 110.00 361.60 111.26 363.65 112.04 366.11 C 113.32 370.18 113.11 371.56 109.78 374.40 C 109.41 374.72 108.83 374.87 108.95 375.48 C 109.81 379.87 106.47 381.57 103.68 383.49 C 102.13 384.56 100.68 385.48 99.61 387.19 C 97.83 390.04 95.04 390.39 91.27 388.98 C 86.11 387.05 81.14 384.83 77.07 380.98 C 74.44 378.49 72.50 375.48 70.59 372.44 C 69.66 370.95 68.89 369.48 66.91 368.81 C 64.91 368.14 63.77 364.40 64.51 362.32 C 64.73 361.69 64.60 360.52 65.96 361.36 C 66.39 361.63 67.04 360.79 66.88 360.50 C 65.40 357.84 67.85 356.74 69.11 355.62 C 72.64 352.47 75.98 349.20 78.68 345.30 C 80.12 343.23 83.53 343.01 87.68 344.64 C 90.46 345.73 93.20 346.73 96.34 346.37 C 97.96 346.19 99.68 344.50 101.40 346.32 C 101.70 346.64 101.72 346.03 101.78 345.82 C 102.77 342.49 106.15 342.14 108.46 340.47 C 109.09 340.02 109.50 340.59 109.96 341.01 C 111.84 342.70 112.32 345.00 113.01 347.65 Z" fill="#f5c620" fill-rule="nonzero" group-id="1,2" node-id="73" stroke="none" target-height="50.370026" target-width="49.55" target-x="63.77" target-y="340.02"></path><path d="M 62.80 464.07 C 60.65 463.03 57.84 462.55 59.58 458.91 C 60.10 457.82 57.63 457.83 57.79 455.99 C 58.19 451.54 58.02 447.04 58.24 442.58 C 58.29 441.50 58.41 440.54 58.11 439.42 C 57.36 436.61 59.00 434.66 63.34 432.82 C 66.18 431.62 69.23 430.75 71.25 428.19 C 73.01 425.96 75.37 424.01 74.92 420.66 C 74.84 420.11 75.04 419.45 75.30 418.94 C 76.19 417.22 75.69 414.27 79.12 414.75 C 82.39 415.21 85.40 417.71 85.78 420.30 C 86.19 423.02 87.38 425.59 86.97 428.47 C 86.77 429.87 88.12 429.59 88.92 429.63 C 91.95 429.80 94.78 430.54 97.37 432.16 C 98.58 432.92 100.20 433.81 100.21 435.07 C 100.26 440.90 105.29 446.38 101.43 452.46 C 100.96 453.20 101.38 454.01 101.53 454.79 C 102.32 458.95 100.90 461.00 96.76 462.65 C 91.66 464.68 86.54 466.42 80.97 466.39 C 77.23 466.37 73.67 465.43 70.12 464.44 C 68.28 463.93 66.46 463.38 64.66 464.57 C 64.14 464.05 63.71 463.14 62.80 464.07 Z" fill="#f5c620" fill-rule="nonzero" group-id="1,2" node-id="75" stroke="none" target-height="52.150024" target-width="47.93" target-x="57.36" target-y="414.27"></path><path d="M 154.33 455.05 C 152.16 456.10 149.87 458.22 148.28 454.32 C 148.21 454.14 147.65 453.94 147.52 454.03 C 145.03 455.85 143.83 453.26 142.67 452.23 C 139.12 449.09 135.63 445.94 131.49 443.58 C 128.29 441.76 129.03 438.64 129.85 436.29 C 131.60 431.29 131.15 426.43 130.33 421.46 C 130.25 420.98 130.18 420.85 129.75 420.71 C 126.78 419.77 126.06 416.76 124.26 414.74 C 123.44 413.81 124.20 413.33 124.67 412.73 C 127.19 409.48 130.56 409.16 134.54 410.75 C 136.84 411.67 139.03 412.48 140.83 414.19 C 141.81 415.12 142.22 414.08 142.71 413.56 C 144.77 411.37 147.05 409.62 149.87 408.33 C 152.94 406.93 155.22 407.68 157.48 409.68 C 157.96 410.10 158.09 410.99 159.06 410.76 C 163.34 409.73 165.34 412.90 167.51 415.53 C 168.65 416.90 169.60 418.21 171.33 419.09 C 174.74 420.82 176.11 424.67 173.89 428.91 C 171.66 433.18 170.94 438.13 167.49 441.88 C 165.10 444.48 162.54 446.82 159.79 448.94 C 157.96 450.36 156.31 451.78 155.48 453.98 C 154.10 453.26 154.32 454.27 154.33 455.05 Z" fill="#f5c620" fill-rule="nonzero" group-id="1,2" node-id="77" stroke="none" target-height="51.29001" target-width="52.67" target-x="123.44" target-y="406.93"></path><path d="M 108.48 180.93 C 105.67 182.56 104.97 186.01 101.89 187.33 C 98.68 188.70 96.35 188.53 94.49 185.51 C 91.73 181.03 90.80 175.84 90.20 170.76 C 89.87 167.98 88.38 165.66 88.22 162.90 C 88.08 160.64 87.17 158.43 86.97 156.17 C 86.85 154.78 86.03 153.16 87.95 151.88 C 89.27 151.00 87.52 149.79 86.99 149.59 C 85.75 149.12 85.10 148.42 85.14 147.22 C 85.24 144.01 83.82 141.08 83.58 137.91 C 83.44 136.06 84.06 134.37 83.98 132.58 C 83.95 131.85 84.72 130.98 85.55 130.99 C 86.96 131.02 88.28 131.63 89.16 132.75 C 93.04 137.71 95.85 143.17 97.87 149.20 C 98.88 152.22 100.55 155.07 101.39 158.24 C 101.75 159.61 102.51 159.39 103.09 158.23 C 104.43 155.55 107.18 154.64 109.50 153.21 C 109.95 152.94 110.67 153.00 111.25 153.08 C 113.08 153.31 113.53 155.57 115.91 155.74 C 117.59 155.85 118.52 159.00 118.88 161.22 C 120.06 168.59 121.25 175.96 122.32 183.34 C 123.10 188.70 123.45 194.07 125.17 199.33 C 126.08 202.12 124.94 205.46 122.92 207.97 C 121.44 209.81 120.59 207.02 119.18 207.22 C 117.96 207.39 116.90 206.26 116.70 205.38 C 115.38 199.50 112.13 194.31 110.88 188.41 C 110.36 185.85 109.30 183.41 108.48 180.93 Z" fill="#f5c620" fill-rule="nonzero" group-id="1,2" node-id="79" stroke="none" target-height="78.83" target-width="42.64" target-x="83.44" target-y="130.98"></path><path d="M 393.42 207.95 C 392.90 209.61 394.11 210.62 394.96 211.65 C 398.29 215.69 402.09 219.39 405.04 223.68 C 409.54 230.21 416.42 234.30 421.30 240.36 C 425.19 245.19 430.03 249.09 433.87 254.03 C 436.06 256.85 438.27 259.99 440.87 262.22 C 444.64 265.46 448.28 269.26 453.22 271.01 C 453.51 272.44 452.42 273.56 452.35 274.99 C 452.29 276.20 450.91 276.57 449.51 276.45 C 444.23 276.00 439.74 273.67 435.26 271.06 C 431.62 268.94 428.13 266.67 424.95 263.91 C 424.72 263.71 424.18 263.88 423.79 263.88 C 421.54 262.33 420.15 259.79 417.51 258.64 C 415.66 257.84 416.67 255.18 414.97 254.12 C 414.67 253.93 414.52 253.23 414.30 253.23 C 408.54 253.19 407.08 247.58 403.41 244.85 C 402.35 244.06 401.53 242.93 400.60 241.96 C 396.52 236.14 391.84 230.73 388.67 224.30 C 386.80 220.51 386.06 216.45 386.38 212.36 C 386.70 208.14 389.30 206.75 393.42 207.95 Z" fill="#434a9d" fill-rule="nonzero" group-id="1,2" node-id="81" stroke="none" target-height="69.82001" target-width="67.45001" target-x="386.06" target-y="206.75"></path><path d="M 437.23 169.29 C 441.42 167.26 445.61 165.23 450.32 162.95 C 449.95 164.15 449.74 164.81 449.52 165.50 C 450.78 165.79 451.70 165.00 452.73 164.76 C 453.08 164.68 453.54 164.45 453.66 164.16 C 454.89 161.23 454.80 161.01 457.75 160.04 C 460.10 159.27 461.91 157.68 464.12 156.73 C 466.03 155.91 465.81 154.83 464.04 154.06 C 462.28 153.29 460.77 152.17 459.44 150.85 C 455.83 147.26 456.71 142.16 461.30 140.01 C 464.11 138.69 466.51 135.98 470.14 137.21 C 470.29 137.26 470.56 137.18 470.68 137.07 C 474.54 133.44 474.64 133.76 479.78 132.10 C 481.88 131.42 484.15 130.45 486.06 129.13 C 487.61 128.06 489.34 128.37 490.95 128.16 C 491.74 128.06 493.73 128.55 493.63 129.42 C 493.44 131.08 494.26 132.89 493.14 134.44 C 491.08 137.30 488.31 139.35 485.37 141.21 C 485.20 141.32 485.01 141.56 484.88 141.53 C 479.63 140.15 482.14 144.91 480.48 146.78 C 484.40 146.16 485.41 149.16 486.91 151.31 C 488.25 153.24 488.08 155.55 487.08 157.54 C 483.68 164.31 476.68 166.04 470.61 169.07 C 469.19 169.78 468.44 167.70 467.08 168.34 C 468.23 170.32 466.09 170.44 465.39 170.67 C 456.17 173.79 447.03 177.28 437.22 178.18 C 436.57 177.62 435.97 177.02 435.53 176.27 C 434.90 174.88 434.43 173.47 434.89 171.92 C 435.44 170.85 436.65 170.34 437.23 169.29 Z" fill="#f5c620" fill-rule="nonzero" group-id="1,2" node-id="83" stroke="none" target-height="50.119995" target-width="59.830017" target-x="434.43" target-y="128.06"></path><path d="M 155.41 176.55 C 154.72 175.78 154.37 174.89 154.25 173.86 C 153.60 168.45 151.34 163.44 150.22 158.16 C 149.72 155.79 148.92 155.97 147.27 156.95 C 145.48 158.01 143.61 158.96 141.71 159.80 C 138.27 161.31 136.16 160.01 133.83 156.98 C 131.06 153.39 131.36 149.22 130.98 145.37 C 129.95 134.90 128.29 124.53 126.81 114.13 C 126.58 112.50 127.55 111.83 128.44 111.30 C 129.98 110.37 131.56 111.33 132.66 112.27 C 135.50 114.70 136.78 118.02 138.13 121.51 C 140.05 126.49 141.68 131.61 144.05 136.42 C 144.85 138.04 147.29 136.67 148.21 138.35 C 148.39 138.12 148.67 137.92 148.74 137.66 C 149.33 135.43 152.56 132.30 154.57 132.07 C 155.93 131.91 159.58 135.42 159.70 137.11 C 160.14 142.88 160.75 148.64 161.22 154.40 C 161.72 160.51 162.14 166.65 162.21 172.79 C 162.24 175.39 162.36 178.42 158.53 178.85 C 157.87 177.54 157.11 176.41 155.41 176.55 Z" fill="#f5c620" fill-rule="nonzero" group-id="1,2" node-id="85" stroke="none" target-height="68.48" target-width="35.78" target-x="126.58" target-y="110.37"></path><path d="M 155.24 256.59 C 162.75 255.47 166.31 248.65 172.05 244.98 C 174.56 243.37 177.06 241.41 179.09 239.58 C 181.56 237.36 184.09 235.07 186.69 232.93 C 189.25 230.82 191.65 228.47 194.98 227.48 C 195.54 227.31 195.94 226.54 196.37 226.01 C 196.87 225.40 197.23 224.32 197.83 224.18 C 201.93 223.23 202.66 218.86 205.65 216.76 C 210.94 213.04 214.42 207.70 217.87 202.38 C 219.66 202.25 220.39 203.25 221.17 204.78 C 223.09 208.51 222.11 211.70 220.36 215.15 C 217.33 221.11 213.14 226.17 208.87 231.20 C 201.90 238.29 195.01 245.47 186.72 251.08 C 179.87 254.82 173.62 259.68 166.11 262.18 C 164.08 262.86 161.88 263.06 159.89 263.82 C 157.36 264.80 155.67 262.81 154.27 261.80 C 153.26 261.08 153.86 258.19 155.24 256.59 Z" fill="#424a9d" fill-rule="nonzero" group-id="1,2" node-id="87" stroke="none" target-height="62.549988" target-width="69.83" target-x="153.26" target-y="202.25"></path><path d="M 124.14 337.13 C 121.82 337.52 119.14 338.28 116.32 337.76 C 113.85 337.30 112.68 335.85 113.41 333.50 C 114.33 330.51 115.30 327.54 116.30 324.59 C 117.22 321.86 119.79 321.43 121.70 323.66 C 124.34 326.74 126.71 330.05 129.82 332.73 C 131.07 333.81 131.39 334.91 129.53 335.97 C 127.94 336.85 126.45 337.70 124.14 337.13 Z" fill="#189b75" fill-rule="nonzero" group-id="1,2" node-id="89" stroke="none" target-height="16.850006" target-width="18.71" target-x="112.68" target-y="321.43"></path><path d="M 120.68 404.87 C 120.62 410.14 119.61 410.95 114.35 409.63 C 112.10 409.07 109.81 408.73 107.58 408.10 C 104.97 407.37 104.17 404.93 106.00 402.99 C 108.85 399.96 112.00 397.20 114.53 393.86 C 115.58 392.47 116.53 392.33 117.76 393.98 C 120.43 397.58 119.30 402.01 120.68 404.87 Z" fill="#1a9b75" fill-rule="nonzero" group-id="1,2" node-id="91" stroke="none" target-height="18.620026" target-width="16.510002" target-x="104.17" target-y="392.33"></path><path d="M 74.49 394.04 C 78.75 394.28 82.92 395.39 87.23 395.23 C 88.79 395.17 89.62 396.06 88.90 397.78 C 86.94 402.49 83.38 405.85 79.35 408.69 C 78.12 409.56 76.41 408.87 75.64 407.27 C 74.17 404.21 72.67 401.16 71.36 398.03 C 70.45 395.85 72.10 393.84 74.49 394.04 Z" fill="#199b75" fill-rule="nonzero" group-id="1,2" node-id="93" stroke="none" target-height="15.720001" target-width="19.170006" target-x="70.45" target-y="393.84"></path><path d="M 435.85 176.42 C 437.02 176.46 437.22 177.25 437.23 178.19 C 435.00 178.65 433.22 177.38 432.72 175.68 C 432.23 174.02 433.03 171.96 434.69 170.73 C 435.47 170.15 436.38 169.76 437.24 169.29 C 437.13 170.56 436.27 171.19 435.24 171.69 C 434.36 173.41 434.71 174.97 435.85 176.42 Z" fill="#fadc88" fill-rule="nonzero" group-id="1,2" node-id="95" stroke="none" target-height="9.360001" target-width="5.0099792" target-x="432.23" target-y="169.29"></path><path d="M 170.54 471.28 C 170.69 470.39 169.57 469.76 170.15 468.55 C 171.00 469.80 171.79 471.27 173.35 469.35 C 174.00 468.54 175.11 468.64 175.98 469.40 C 175.74 469.86 173.76 469.02 174.99 470.27 C 175.92 471.21 175.67 471.63 175.20 472.34 C 174.66 473.15 173.91 473.07 173.14 472.64 C 172.29 472.17 171.41 471.73 170.54 471.28 Z" fill="#fadd8c" fill-rule="nonzero" group-id="1,2" node-id="97" stroke="none" target-height="4.6099854" target-width="6.4099884" target-x="169.57" target-y="468.54"></path><path d="M 268.11 210.85 C 268.57 214.46 266.20 212.34 264.92 212.42 C 265.20 210.31 266.79 210.86 268.11 210.85 Z" fill="#fadf93" fill-rule="nonzero" group-id="1,2" node-id="99" stroke="none" target-height="4.150009" target-width="3.649994" target-x="264.92" target-y="210.31"></path><path d="M 155.41 176.55 C 157.70 175.59 158.93 176.10 158.52 178.82 C 156.65 179.22 156.75 176.90 155.41 176.55 Z" fill="#f9db81" fill-rule="nonzero" group-id="1,2" node-id="101" stroke="none" target-height="3.630005" target-width="3.519989" target-x="155.41" target-y="175.59"></path><path d="M 154.33 455.05 C 154.05 454.34 152.57 454.73 152.88 453.59 C 152.97 453.24 153.60 452.96 154.04 452.79 C 155.13 452.38 155.42 453.07 155.49 453.97 C 155.31 454.56 154.92 454.92 154.33 455.05 Z" fill="#fae096" fill-rule="nonzero" group-id="1,2" node-id="103" stroke="none" target-height="2.669983" target-width="2.9199982" target-x="152.57" target-y="452.38"></path><path d="M 534.70 152.39 C 534.13 154.61 532.66 154.34 531.05 153.70 C 532.23 153.16 533.17 151.94 534.70 152.39 Z" fill="#fadd89" fill-rule="nonzero" group-id="1,2" node-id="105" stroke="none" target-height="2.6699982" target-width="3.6500244" target-x="531.05" target-y="151.94"></path><path d="M 62.80 464.07 C 62.88 463.32 62.28 462.09 63.83 462.29 C 65.37 462.49 64.70 463.68 64.68 464.56 C 63.99 464.64 63.27 464.83 62.80 464.07 Z" fill="#fbe39e" fill-rule="nonzero" group-id="1,2" node-id="107" stroke="none" target-height="2.7399902" target-width="3.090004" target-x="62.28" target-y="462.09"></path><path d="M 184.91 445.51 C 185.53 445.17 186.09 444.19 186.87 445.23 C 187.35 445.87 187.88 446.65 186.95 447.28 C 185.83 448.04 186.13 446.67 185.73 446.33 C 185.43 446.07 185.20 445.74 184.94 445.45 C 184.95 445.45 184.91 445.51 184.91 445.51 Z" fill="#f5c620" fill-rule="nonzero" group-id="1,2" node-id="109" stroke="none" target-height="3.850006" target-width="2.9700012" target-x="184.91" target-y="444.19"></path><path d="M 537.79 158.91 C 537.15 159.10 536.50 159.28 535.86 159.47 C 536.43 158.42 536.41 155.99 538.37 158.33 C 538.17 158.52 537.98 158.72 537.79 158.91 Z" fill="#fce6ab" fill-rule="nonzero" group-id="1,2" node-id="111" stroke="none" target-height="3.4799957" target-width="2.5100098" target-x="535.86" target-y="155.99"></path><path d="M 192.08 425.44 C 192.45 425.76 192.93 426.01 193.16 426.41 C 193.45 426.91 194.44 427.45 193.52 428.09 C 192.74 428.63 192.73 427.52 192.29 427.27 C 191.88 427.03 191.41 426.89 190.96 426.71 C 191.34 426.29 191.71 425.86 192.08 425.44 Z" fill="#f9d878" fill-rule="nonzero" group-id="1,2" node-id="113" stroke="none" target-height="3.1900024" target-width="3.4799957" target-x="190.96" target-y="425.44"></path><path d="M 215.20 429.02 C 211.78 427.24 210.54 423.50 207.94 420.92 C 200.49 413.50 195.20 404.67 191.32 394.80 C 188.42 387.43 184.83 380.30 182.75 372.64 C 180.68 365.04 179.53 357.20 179.06 349.37 C 178.49 339.72 178.43 330.01 180.20 320.43 C 181.16 315.22 182.87 310.21 184.61 305.21 C 185.84 301.66 187.39 298.24 188.30 294.55 C 189.21 290.82 191.73 287.72 193.42 284.29 C 194.91 281.26 196.47 278.19 197.78 275.10 C 199.32 271.46 201.86 268.57 204.12 265.57 C 208.11 260.27 212.70 255.40 217.78 251.01 C 220.95 248.27 224.23 245.68 227.68 243.34 C 230.32 241.55 232.74 239.47 235.32 237.61 C 240.06 234.19 245.27 231.09 250.64 229.93 C 257.15 228.52 263.11 225.33 269.76 224.70 C 269.96 224.68 270.17 224.64 270.34 224.55 C 276.89 221.16 284.22 221.36 291.21 220.65 C 297.78 219.98 304.52 220.18 311.23 221.01 C 316.30 221.64 321.31 221.93 326.23 223.59 C 327.89 224.15 330.03 223.57 331.81 224.61 C 333.59 225.65 332.83 221.96 334.44 223.08 C 335.33 223.70 334.68 225.68 336.08 226.04 C 340.04 227.03 343.69 228.85 347.52 230.10 C 348.87 230.54 349.88 231.41 351.17 231.82 C 356.76 233.58 361.21 237.45 366.35 240.01 C 370.93 242.29 374.07 246.37 378.45 248.85 C 379.33 249.35 380.05 250.07 381.17 249.77 C 381.51 249.57 381.78 249.64 381.99 249.98 C 382.17 254.20 386.01 255.86 388.40 258.25 C 391.67 261.52 394.15 265.36 397.29 268.66 C 402.38 274.02 404.82 281.01 408.85 287.01 C 411.61 291.12 412.68 295.91 414.81 300.25 C 415.73 302.12 415.56 304.69 418.15 305.51 C 416.38 307.67 417.98 309.62 418.50 311.66 C 419.87 317.04 420.54 322.56 421.77 327.94 C 422.35 330.49 422.40 332.78 422.45 335.30 C 422.66 345.34 421.78 355.32 420.74 365.25 C 420.44 368.11 419.04 371.08 418.13 374.00 C 416.74 378.47 415.22 382.90 413.73 387.33 C 413.22 388.85 411.95 389.91 411.40 391.46 C 410.05 395.25 407.75 398.66 407.08 402.78 C 406.95 403.57 405.13 404.36 404.21 405.53 C 402.50 407.72 401.08 410.05 399.53 412.33 C 397.43 415.40 394.36 417.64 392.25 420.76 C 388.86 425.78 383.74 429.06 379.33 433.04 C 376.92 435.21 373.77 436.33 371.44 438.43 C 367.42 442.05 362.65 444.47 358.31 447.55 C 353.85 450.71 348.81 452.72 343.66 454.51 C 339.71 455.88 335.42 456.60 331.83 458.46 C 328.44 460.22 324.92 460.13 321.59 460.73 C 314.01 462.10 306.27 462.60 298.48 462.37 C 289.23 462.10 280.31 460.08 271.31 458.41 C 268.08 457.81 265.07 456.37 262.00 455.58 C 256.73 454.23 252.11 451.39 246.83 450.16 C 242.65 449.19 239.72 445.62 235.77 443.96 C 231.03 441.96 227.33 438.24 222.96 435.58 C 221.06 434.42 218.24 433.18 217.41 430.41 C 220.34 428.76 223.62 428.38 226.86 427.87 C 227.65 427.74 228.46 427.75 229.23 427.49 C 231.75 426.64 232.47 425.10 230.90 422.96 C 229.40 420.93 230.02 419.63 231.50 418.03 C 236.56 412.54 242.72 408.25 247.99 402.99 C 248.27 402.71 248.68 402.53 248.89 402.20 C 252.78 396.35 259.10 393.06 263.83 388.10 C 269.91 381.72 276.75 376.11 282.80 369.71 C 288.02 364.19 294.13 359.63 299.29 354.06 C 302.63 353.45 305.97 352.88 308.59 350.39 C 309.31 349.70 310.28 350.01 311.18 350.01 C 313.93 350.02 316.79 350.87 319.33 349.00 C 319.86 348.61 320.53 348.82 321.04 349.15 C 323.31 350.61 325.76 350.38 328.30 350.23 C 334.19 349.89 340.09 350.54 345.97 350.22 C 349.26 350.05 352.55 350.09 355.83 349.95 C 360.77 349.74 365.77 350.22 370.69 350.99 C 371.78 351.16 371.89 352.09 372.11 353.02 C 372.77 355.86 373.79 356.27 376.32 354.73 C 378.88 353.16 381.62 351.86 383.88 349.84 C 386.20 347.76 386.19 346.64 384.10 344.33 C 381.67 341.65 378.73 339.54 376.02 337.16 C 374.60 335.91 373.69 336.81 372.88 338.03 C 371.26 340.47 368.75 341.28 366.17 339.92 C 364.64 339.11 363.12 339.03 361.52 339.10 C 357.04 339.31 352.47 339.67 348.08 339.58 C 343.44 339.48 338.74 339.46 334.07 339.32 C 333.77 339.31 333.42 339.12 333.18 339.22 C 328.65 341.26 324.20 338.14 319.68 339.02 C 318.24 339.30 316.77 339.10 315.35 339.90 C 313.62 340.87 308.79 338.24 307.21 335.73 C 307.04 330.65 305.79 325.66 306.34 320.51 C 306.99 314.50 305.44 308.55 305.55 302.53 C 305.72 292.53 304.47 282.58 304.42 272.59 C 304.41 270.89 303.72 269.27 303.54 267.57 C 303.33 265.51 303.79 263.96 305.70 262.73 C 309.33 260.38 309.33 259.09 305.92 256.55 C 304.31 255.35 302.84 253.98 301.35 252.67 C 299.78 251.30 297.66 252.10 296.18 250.71 C 295.67 250.23 295.27 251.28 295.00 251.70 C 293.69 253.71 292.44 255.78 291.30 257.88 C 289.59 261.05 291.49 263.94 295.08 263.96 C 298.04 263.97 298.57 264.51 298.16 267.51 C 297.42 272.91 297.95 278.30 298.25 283.69 C 298.30 284.59 298.42 285.49 298.39 286.39 C 297.99 297.21 299.16 308.00 299.08 318.81 C 299.05 322.67 300.16 326.51 299.67 330.43 C 299.51 331.69 300.18 332.75 301.09 333.61 C 301.97 334.79 301.38 335.77 300.41 336.36 C 295.78 339.16 294.46 343.43 294.83 348.50 C 294.25 349.88 292.91 350.49 291.91 351.45 C 286.25 356.81 280.05 361.61 274.83 367.45 C 273.03 369.47 270.70 370.94 268.65 372.70 C 262.97 377.59 258.06 383.31 252.22 388.02 C 251.36 388.72 250.66 389.58 250.21 390.61 C 249.97 391.16 249.74 391.74 249.20 392.07 C 241.66 396.74 235.86 403.40 229.47 409.37 C 227.50 411.21 225.33 412.86 223.78 415.12 C 222.78 416.57 221.75 415.77 220.64 415.30 C 218.96 414.60 217.19 412.65 215.46 414.16 C 213.85 415.57 214.67 417.89 214.97 419.87 C 215.40 422.92 215.26 425.98 215.20 429.02 Z" fill="#eb5a19" fill-rule="nonzero" group-id="1,2" node-id="115" stroke="none" target-height="242.62001" target-width="244.23001" target-x="178.43" target-y="219.98"></path><path d="M 299.72 354.47 C 295.22 358.67 290.38 362.64 286.21 367.01 C 278.30 375.28 269.67 382.76 261.71 390.94 C 259.58 393.13 256.95 394.78 255.00 397.18 C 254.36 397.97 253.45 398.76 252.15 398.45 C 251.61 398.32 250.93 398.77 250.99 399.16 C 251.66 403.23 247.46 403.61 245.79 405.89 C 243.95 408.40 241.47 410.67 238.81 412.28 C 235.61 414.21 233.90 417.48 231.01 419.60 C 230.01 420.34 230.06 421.04 231.04 422.00 C 233.58 424.50 232.97 427.69 229.60 428.10 C 225.45 428.61 221.55 430.20 217.38 430.42 C 216.28 430.55 216.02 429.36 215.20 429.03 C 214.75 426.74 213.47 424.47 215.06 422.13 C 215.42 421.60 214.76 421.27 214.60 420.83 C 214.34 420.10 213.89 419.46 213.85 418.60 C 213.76 416.61 213.33 414.21 215.04 413.08 C 216.43 412.16 218.49 413.17 219.94 414.22 C 222.03 415.73 223.06 414.89 224.66 413.15 C 228.62 408.84 233.04 404.95 237.22 400.84 C 239.87 398.23 243.03 396.18 245.36 393.25 C 245.55 393.02 245.77 392.67 246.00 392.64 C 249.81 392.18 250.19 387.92 253.11 386.32 C 256.09 384.69 258.64 381.97 260.76 379.58 C 266.83 372.72 274.20 367.35 280.59 360.91 C 284.94 356.53 289.48 352.31 294.40 348.54 C 296.08 350.59 297.59 352.80 299.72 354.47 Z" fill="#129a74" fill-rule="nonzero" group-id="1,2" node-id="117" stroke="none" target-height="82.00998" target-width="86.39" target-x="213.33" target-y="348.54"></path><path d="M 378.79 449.92 C 379.98 448.40 380.66 446.21 383.43 446.02 C 382.31 448.19 380.29 448.75 378.79 449.92 Z" fill="#fae69d" fill-rule="nonzero" group-id="1,2" node-id="119" stroke="none" target-height="3.9000244" target-width="4.639984" target-x="378.79" target-y="446.02"></path><path d="M 356.67 230.46 C 355.27 229.16 356.28 228.05 356.02 227.00 C 357.67 227.86 357.59 228.95 356.67 230.46 Z" fill="#fdf7dd" fill-rule="nonzero" group-id="1,2" node-id="121" stroke="none" target-height="3.4600067" target-width="2.4000244" target-x="355.27" target-y="227"></path><path d="M 365.80 228.68 C 365.86 227.38 366.00 226.46 367.13 226.12 C 367.24 226.09 367.55 226.32 367.56 226.44 C 367.60 227.49 367.26 228.31 365.80 228.68 Z" fill="#f8d66c" fill-rule="nonzero" group-id="1,2" node-id="123" stroke="none" target-height="2.5899963" target-width="1.8000183" target-x="365.8" target-y="226.09"></path><path d="M 314.64 214.03 C 315.00 214.85 316.17 215.65 314.86 216.55 C 314.47 216.82 314.06 216.76 313.79 216.47 C 312.67 215.26 314.70 215.01 314.64 214.03 Z" fill="#fffefa" fill-rule="nonzero" group-id="1,2" node-id="125" stroke="none" target-height="2.7900085" target-width="3.5" target-x="312.67" target-y="214.03"></path><path d="M 381.98 249.97 C 381.71 249.90 381.43 249.83 381.16 249.76 C 381.65 248.63 380.89 246.88 383.03 246.42 C 382.67 247.67 382.32 248.82 381.98 249.97 Z" fill="#e4bec1" fill-rule="nonzero" group-id="1,2" node-id="127" stroke="none" target-height="3.550003" target-width="2.1399841" target-x="380.89" target-y="246.42"></path><path d="M 386.41 442.68 C 385.16 441.52 385.51 440.51 385.22 439.38 C 386.97 440.07 386.70 441.15 386.41 442.68 Z" fill="#fef9e7" fill-rule="nonzero" group-id="1,2" node-id="129" stroke="none" target-height="3.2999878" target-width="1.8099976" target-x="385.16" target-y="439.38"></path><path d="M 451.66 215.09 C 451.81 219.16 449.60 221.25 445.26 221.15 C 445.07 221.15 444.80 221.09 444.70 221.19 C 442.13 223.74 440.08 222.11 438.60 220.06 C 436.60 217.31 435.06 214.26 436.52 210.63 C 436.83 209.86 437.10 209.44 438.03 209.83 C 439.52 210.46 440.06 210.23 439.39 208.45 C 439.06 207.58 440.31 207.52 440.82 207.35 C 445.85 205.69 451.47 209.74 451.66 215.09 Z" fill="#ffffff" fill-rule="nonzero" group-id="1,2" node-id="131" stroke="none" target-height="18.050003" target-width="16.75" target-x="435.06" target-y="205.69"></path><path d="M 442.15 197.80 C 443.20 197.51 444.06 197.00 444.73 197.91 C 444.86 198.08 444.62 198.76 444.37 198.93 C 443.34 199.60 442.86 198.79 442.15 197.80 Z" fill="#dfebe3" fill-rule="nonzero" group-id="1,2" node-id="133" stroke="none" target-height="2.600006" target-width="2.7099915" target-x="442.15" target-y="197"></path><path d="M 451.03 201.17 C 452.03 201.63 452.77 202.09 452.92 202.97 C 452.99 203.37 452.43 203.48 452.02 203.44 C 450.67 203.31 450.97 202.35 451.03 201.17 Z" fill="#cfe2d6" fill-rule="nonzero" group-id="1,2" node-id="135" stroke="none" target-height="2.3099976" target-width="2.3199768" target-x="450.67" target-y="201.17"></path><path d="M 172.46 197.51 C 175.93 197.91 179.93 201.31 180.12 203.72 C 180.44 207.70 177.33 212.45 173.67 213.83 C 168.46 215.79 166.38 214.33 164.28 211.87 C 161.26 208.33 161.94 203.05 165.98 200.71 C 168.15 199.44 170.24 197.85 172.46 197.51 Z" fill="#ffffff" fill-rule="nonzero" group-id="1,2" node-id="137" stroke="none" target-height="18.279999" target-width="19.180008" target-x="161.26" target-y="197.51"></path><path d="M 501.14 175.59 C 501.09 174.04 502.33 174.02 503.15 173.63 C 503.72 173.36 504.48 173.43 504.58 174.17 C 504.73 175.24 503.89 174.78 503.38 174.74 C 502.53 174.68 502.33 176.03 501.14 175.59 Z" fill="#fbe29c" fill-rule="nonzero" group-id="1,2" node-id="139" stroke="none" target-height="2.6699982" target-width="3.6400146" target-x="501.09" target-y="173.36"></path><path d="M 435.85 176.42 C 433.08 175.18 433.55 173.52 435.23 171.69 C 435.44 173.27 435.64 174.85 435.85 176.42 Z" fill="#fffbef" fill-rule="nonzero" group-id="1,2" node-id="141" stroke="none" target-height="4.7299957" target-width="2.7700195" target-x="433.08" target-y="171.69"></path><path d="M 299.72 354.47 C 296.85 353.47 295.05 351.51 294.41 348.52 C 293.15 342.97 295.11 338.81 299.94 335.96 C 300.71 335.51 301.05 334.90 301.30 334.14 C 303.96 332.97 305.10 333.30 307.55 335.92 C 308.97 337.14 310.26 338.71 312.43 338.33 C 313.91 338.07 313.48 339.79 314.67 340.21 C 314.73 338.29 315.98 338.20 317.46 338.25 C 320.52 338.36 323.60 338.26 326.65 338.45 C 327.37 338.50 329.15 337.59 328.83 339.80 C 328.78 340.15 329.91 340.20 329.95 339.77 C 330.14 337.86 331.39 338.22 332.54 338.44 C 335.48 338.99 338.43 338.17 341.37 338.48 C 348.94 339.28 356.51 338.16 364.08 338.40 C 364.67 338.42 365.67 338.34 365.79 338.61 C 367.03 341.38 369.47 338.17 371.03 339.69 C 371.36 340.01 371.60 338.89 371.74 338.34 C 372.10 336.90 372.83 335.84 374.40 335.48 C 376.01 335.11 376.18 336.61 377.04 337.24 C 379.80 339.24 382.27 341.51 384.62 343.94 C 387.37 346.78 387.46 348.16 384.34 350.51 C 381.43 352.70 378.28 354.58 375.15 356.46 C 373.46 357.48 371.12 355.67 371.15 353.25 C 371.16 352.15 371.20 351.74 369.94 351.51 C 365.65 350.73 361.03 350.23 357.02 350.53 C 351.89 350.92 346.69 350.86 341.57 351.13 C 335.79 351.44 329.93 351.18 324.12 351.06 C 321.57 351.01 319.05 349.61 316.38 350.85 C 315.89 351.08 315.19 350.89 314.59 350.88 C 311.80 350.84 309.05 350.42 306.63 352.69 C 304.81 354.41 302.21 354.59 299.72 354.47 Z" fill="#ffffff" fill-rule="nonzero" group-id="1,2" node-id="143" stroke="none" target-height="24.51001" target-width="94.31" target-x="293.15" target-y="332.97"></path><path d="M 307.54 335.92 C 305.42 335.45 303.74 333.44 301.29 334.14 C 298.67 334.31 298.67 332.42 298.77 330.71 C 299.22 323.16 298.21 315.65 297.93 308.13 C 297.60 299.26 297.82 290.37 297.12 281.49 C 296.74 276.60 296.43 271.56 297.46 266.63 C 297.74 265.25 297.56 264.33 295.62 264.76 C 293.75 265.17 291.44 265.26 290.59 263.20 C 289.72 261.10 288.89 258.70 291.05 256.51 C 292.13 255.41 292.92 253.97 293.45 252.41 C 294.02 250.74 295.30 249.60 297.01 249.00 C 297.76 249.24 295.54 252.64 298.51 250.41 C 299.05 250.01 299.37 250.23 299.81 250.53 C 303.06 252.75 306.02 255.37 309.02 257.88 C 311.07 259.59 308.58 262.30 307.27 262.72 C 302.84 264.13 304.13 267.22 304.65 269.96 C 304.97 271.63 304.92 273.27 305.12 274.86 C 306.01 281.96 305.50 289.12 306.41 296.22 C 306.96 300.50 306.04 304.89 306.61 309.23 C 307.34 314.78 307.05 320.32 306.88 325.90 C 306.79 329.13 308.03 332.51 307.54 335.92 Z" fill="#f5c520" fill-rule="nonzero" group-id="1,2" node-id="145" stroke="none" target-height="86.92001" target-width="22.179993" target-x="288.89" target-y="249"></path><path d="M 317.93 450.83 C 317.13 452.21 317.27 453.82 316.87 455.25 C 316.01 458.31 310.02 459.21 307.95 456.58 C 304.27 451.89 305.93 446.19 310.93 444.52 C 313.70 443.60 315.71 444.56 317.34 446.76 C 317.69 448.09 317.67 449.48 317.93 450.83 Z" fill="#fffffe" fill-rule="nonzero" group-id="1,2" node-id="147" stroke="none" target-height="15.609985" target-width="13.660004" target-x="304.27" target-y="443.6"></path><path d="M 410.95 352.11 C 407.38 351.83 404.70 348.91 405.03 345.67 C 405.32 342.82 409.60 339.02 412.41 339.11 C 414.86 339.19 418.18 342.30 417.66 344.35 C 416.84 347.62 413.94 352.46 410.95 352.11 Z" fill="#fffefe" fill-rule="nonzero" group-id="1,2" node-id="149" stroke="none" target-height="13.440002" target-width="13.47998" target-x="404.7" target-y="339.02"></path><path d="M 297.12 238.23 C 294.38 238.29 291.07 235.50 290.97 233.04 C 290.83 229.69 293.92 226.20 297.10 226.10 C 298.99 226.04 304.12 229.70 304.06 231.07 C 303.89 235.06 300.90 238.14 297.12 238.23 Z" fill="#ffffff" fill-rule="nonzero" group-id="1,2" node-id="151" stroke="none" target-height="12.25" target-width="13.290009" target-x="290.83" target-y="226.04"></path><path d="M 187.09 354.70 C 184.63 354.75 182.08 351.69 182.02 348.62 C 181.98 346.54 186.08 343.54 189.00 343.52 C 190.44 343.51 193.24 346.67 193.31 348.40 C 193.42 350.95 189.77 354.65 187.09 354.70 Z" fill="#fffdfd" fill-rule="nonzero" group-id="1,2" node-id="153" stroke="none" target-height="11.23999" target-width="11.440002" target-x="181.98" target-y="343.51"></path><path d="M 317.93 450.83 C 317.20 450.48 317.46 449.48 316.95 449.12 C 315.32 447.97 316.74 447.46 317.35 446.76 C 319.01 447.40 319.28 448.76 319.28 450.32 C 319.28 451.82 318.25 450.32 317.93 450.83 Z" fill="#fad5bf" fill-rule="nonzero" group-id="1,2" node-id="155" stroke="none" target-height="5.0599976" target-width="3.9599915" target-x="315.32" target-y="446.76"></path><path d="M 189.33 352.12 C 188.95 351.56 188.57 351.00 188.19 350.43 C 189.33 350.88 189.32 348.42 190.36 349.40 C 191.57 350.54 189.39 351.01 189.33 352.12 Z" fill="#ed7336" fill-rule="nonzero" group-id="1,2" node-id="157" stroke="none" target-height="3.6999817" target-width="3.380005" target-x="188.19" target-y="348.42"></path></g></g></svg>