<svg viewBox="0 0 1024 1024" version="1.1" xmlns="http://www.w3.org/2000/svg"><path d="M512 512m-512 0a512 512 0 1 0 1024 0 512 512 0 1 0-1024 0Z" fill="#84BF56" data-spm-anchor-id="a313x.collections_detail.i1.i2.7fa63a81zGrda7"></path><path d="M512 960c-193.216 0-363.744-95.424-468.256-241.408C123.2 898.368 302.784 1024 512 1024s388.8-125.632 468.256-305.408C875.744 864.576 705.216 960 512 960z" fill=""></path><path d="M564.537595 523.402714a104.768 174.56 44.999 1 0 246.86081-246.869428 104.768 174.56 44.999 1 0-246.86081 246.869428Z" fill="#434854"></path><path d="M459.462405 523.402714a174.56 104.736 45.001 1 0-246.86081-246.869428 174.56 104.736 45.001 1 0 246.86081 246.869428Z" fill="#434854"></path><path d="M811.36 276.544c-40.896-40.896-129.312-18.816-197.504 49.344-34.432 34.432-56.992 74.016-65.728 110.048 13.12-21.44 29.472-42.624 49.216-62.4 77.76-77.728 176.32-105.536 229.952-68.544-3.328-10.752-8.128-20.672-15.936-28.448zM212.192 276.544c-7.744 7.776-12.576 17.728-15.904 28.48 53.632-36.992 152.224-9.184 229.984 68.544 19.744 19.776 36.128 40.96 49.248 62.4-8.736-36.032-31.296-75.616-65.728-110.048-68.224-68.192-156.672-90.304-197.6-49.376z" fill="#FFFFFF"></path><path d="M480 640m-32 0a32 32 0 1 0 64 0 32 32 0 1 0-64 0Z" fill=""></path><path d="M544 640m-32 0a32 32 0 1 0 64 0 32 32 0 1 0-64 0Z" fill=""></path><path d="M425.792 775.04a33.408 33.408 0 0 0 47.168 47.2 66.784 66.784 0 0 1 94.368 0 33.312 33.312 0 1 0 47.168-47.2 133.44 133.44 0 0 0-188.704 0z" fill="#EACA44"></path></svg>