<?xml version="1.0" encoding="utf-8"?>
<!-- Generator: Adobe Illustrator 23.0.2, SVG Export Plug-In . SVG Version: 6.00 Build 0)  -->
<svg width="150" height="90" version="1.1" id="图层_1" xmlns="http://www.w3.org/2000/svg" xmlns:xlink="http://www.w3.org/1999/xlink" x="0px" y="0px"
	 viewBox="0 0 800 800" style="enable-background:new 0 0 800 800;" xml:space="preserve">
<style type="text/css">
	.st0{fill:#414049;}
	.st1{fill:#FFBC00;}
	.st2{fill:#949CA8;}
	.st3{fill:#7E7E7E;}
	.st4{fill:none;stroke:#000000;stroke-width:4;stroke-linecap:round;stroke-linejoin:round;stroke-miterlimit:10;}
	.st5{fill:#F8F8F8;}
	.st6{fill:#647A06;}
	.st7{fill:#4F5B06;}
	.st8{fill:none;stroke:#000000;stroke-width:4;stroke-linecap:round;stroke-miterlimit:10;}
	.st9{fill:#605F5F;}
	.st10{fill:#FFCE00;}
	.st11{fill:#575460;}
	.st12{fill:#E0E0E2;}
	.st13{fill:#E85B3A;}
	.st14{fill:#FFFFFF;}
	.st15{fill:#F2C3AF;}
	.st16{fill:#FFE2CF;}
	.st17{fill:#5E5D5D;}
	.st18{fill:#161313;}
	.st19{fill:#262222;}
	.st20{fill:#FFFFFF;stroke:#000000;stroke-width:4;stroke-linecap:round;stroke-linejoin:round;stroke-miterlimit:10;}
	.st21{fill:none;stroke:#FFFFFF;stroke-width:4;stroke-linecap:round;stroke-miterlimit:10;}
	.st22{fill:#2C2C2C;}
	.st23{fill:none;stroke:#FFFFFF;stroke-width:5;stroke-linecap:round;stroke-linejoin:round;stroke-miterlimit:10;}
</style>
<path class="st0" d="M752.6,450.2H614.7v73.2h98.6c23.3,0,42.1-18.8,42.1-42.1v-15.9C755.4,460.1,754.4,455,752.6,450.2z"/>
<path class="st1" d="M728.7,417.2l-150-75.6c-10.9-5.5-23.4,2.1-27.6,16.7l-11.8,41l28.1,1.6l13.5-13.4l36.1,55.2l0.3,0l134.9,7.9
	C748.9,435.5,740.4,423.1,728.7,417.2z"/>
<path class="st2" d="M726.5,425.4l-157.2-51.9c-11.4-3.8-23.7,2.7-27.1,14.2l-9.5,32.3h28.7l12.9-11l40.1,41.2h0.3h137.9
	C748.2,438.7,738.7,429.4,726.5,425.4z"/>
<polygon class="st3" points="266.7,411.3 418.2,411.3 433.1,393.7 539.6,393.7 536.7,431.9 281.8,439 "/>
<polygon class="st4" points="266.7,411.3 418.2,411.3 433.1,393.7 539.6,393.7 536.7,431.9 281.8,439 "/>
<g>
	<path class="st5" d="M292,357.6c-12.9,0-23.4,14.7-23.4,32.8c0,18.1,10.5,32.8,23.4,32.8c12.9,0,23.4-14.7,23.4-32.8
		C315.3,372.3,304.9,357.6,292,357.6z M292,412.3c-8.6,0-15.5-9.8-15.5-21.8c0-12.1,7-21.8,15.5-21.8c8.6,0,15.5,9.8,15.5,21.8
		C307.5,402.5,300.5,412.3,292,412.3z"/>
	<polyline class="st4" points="292,368.6 292,390.5 280.6,405.3 	"/>
	<line class="st4" x1="303" y1="405.9" x2="292" y2="390.5"/>
	<ellipse class="st4" cx="292" cy="390.5" rx="23.4" ry="32.8"/>
	<ellipse class="st4" cx="292" cy="390.5" rx="15.5" ry="21.8"/>
</g>
<g>
	<path class="st6" d="M439.9,428.7L439.9,428.7c-13.9,0-25.3-11.4-25.3-25.3v-35c0-13.9,11.4-25.3,25.3-25.3h0
		c13.9,0,25.3,11.4,25.3,25.3v35C465.1,417.4,453.7,428.7,439.9,428.7z"/>
	<path class="st7" d="M443.5,343.2L443.5,343.2c-1.2,0-2.3,0.1-3.5,0.2c12.3,1.7,21.8,12.3,21.8,25v35c0,12.7-9.5,23.3-21.8,25
		c1.1,0.2,2.3,0.2,3.5,0.2h0c13.9,0,25.3-11.4,25.3-25.3v-35C468.7,354.5,457.4,343.2,443.5,343.2z"/>
	<path class="st6" d="M461.8,403.5v-35c0-12.7-9.5-23.3-21.8-25c-12.3,1.7-21.8,12.3-21.8,25v35c0,12.7,9.5,23.3,21.8,25
		C452.3,426.8,461.8,416.2,461.8,403.5z"/>
	<path class="st8" d="M465.1,378.2v25.3c0,13.9-11.4,25.3-25.3,25.3h0c-13.9,0-25.3-11.4-25.3-25.3v-35c0-13.9,11.4-25.3,25.3-25.3
		h0c13.9,0,25.3,11.4,25.3,25.3v4.2"/>
	<line class="st8" x1="461" y1="376.8" x2="461" y2="387.8"/>
	<line class="st8" x1="461" y1="391.8" x2="461" y2="398.5"/>
</g>
<path class="st5" d="M404.9,439h-25.3c-17.6,0-32-14.4-32-32v-25.3c0-17.6,14.4-32,32-32h25.3c17.6,0,32,14.4,32,32v25.3
	C436.9,424.6,422.5,439,404.9,439z"/>
<path class="st9" d="M420,349.8h-7.7c11.5,0,21,9.4,21,21v47.3c0,11.5-9.4,21-21,21h7.7c11.5,0,21-9.4,21-21v-47.3
	C441,359.2,431.6,349.8,420,349.8z"/>
<path class="st3" d="M433.3,418.1v-47.3c0-11.5-9.4-21-21-21h-39.6c-11.5,0-21,9.4-21,21v47.3c0,11.5,9.4,21,21,21h39.6
	C423.9,439,433.3,429.6,433.3,418.1z"/>
<path class="st4" d="M436.9,410.7v7.9c0,11.2-9.2,20.4-20.4,20.4h-48.4c-11.2,0-20.4-9.2-20.4-20.4v-48.4c0-11.2,9.2-20.4,20.4-20.4
	h48.4c11.2,0,20.4,9.2,20.4,20.4v36.6"/>
<path class="st3" d="M722.4,417.2l-150-75.6c-10.9-5.5-23.4,2.1-27.6,16.7l-11.8,41l28.1,1.6l13.5-13.4l36.1,55.2l0.3,0l134.9,7.9
	C742.6,435.5,734.1,423.1,722.4,417.2z"/>
<path class="st10" d="M722.4,417.2l-150-75.6c-10.9-5.5-23.4,2.1-27.6,16.7l-11.8,41l28.1,1.6l13.5-13.4l36.1,55.2l0.3,0l134.9,7.9
	C742.6,435.5,734.1,423.1,722.4,417.2z"/>
<path class="st8" d="M722.4,417.2l-150-75.6c-10.9-5.5-23.4,2.1-27.6,16.7l-11.8,41l28.1,1.6l10.3-10.2c1.8-1.8,4.3-1.5,5.7,0.7
	l33.6,51.3l0.3,0l134.9,7.9C742.6,435.5,734.1,423.1,722.4,417.2z"/>
<path class="st3" d="M720.2,425.4L563,373.5c-11.4-3.8-23.7,2.7-27.1,14.2l-9.5,32.3h28.7l12.9-11l40.1,41.2h0.3h137.9
	C741.8,438.7,732.4,429.4,720.2,425.4z"/>
<path class="st10" d="M608.1,450.2L568,409l-12.9,11h-28.7l-0.2,0.7H300.5L257,404.5c-4.5-1.7-9.4-2-14.1-1L67.2,442.9
	C54.8,445.7,46,456.8,46,469.5V482c0,15,12.2,27.2,27.2,27.2h176.9h50.5c0,7.8,6.4,14.2,14.2,14.2h181.2h112.5v-73.2H608.1z"/>
<path class="st11" d="M746.3,450.2H608.4v73.2H707c23.3,0,42.1-18.8,42.1-42.1v-15.9C749.1,460.1,748.1,455,746.3,450.2z"/>
<path class="st12" d="M720.2,425.4L563,373.5c-11.4-3.8-23.7,2.7-27.1,14.2l-9.5,32.3h28.7l12.9-11l40.1,41.2h0.3h137.9
	C741.8,438.7,732.4,429.4,720.2,425.4z"/>
<path class="st5" d="M608.1,450.2L568,409l-12.9,11h-28.7l-0.2,0.7H300.5L257,404.5c-4.5-1.7-9.4-2-14.1-1L67.2,442.9
	C54.8,445.7,46,456.8,46,469.5V482c0,15,12.2,27.2,27.2,27.2h176.9h50.5c0,7.8,6.4,14.2,14.2,14.2h181.2h112.5v-73.2H608.1z"/>
<path class="st11" d="M746.3,450.2H608.4v73.2H707c23.3,0,42.1-18.8,42.1-42.1v-15.9C749.1,460.1,748.1,455,746.3,450.2z"/>
<path class="st13" d="M618.2,450.2L578.1,409l-12.9,11h-28.7l-0.2,0.7H310.6l-43.6-16.2c-4.5-1.7-9.4-2-14.1-1L77.3,442.9
	c-12.4,2.8-21.3,13.8-21.3,26.6V482c0,15,12.2,27.2,27.2,27.2h176.9h50.5c0,7.8,6.4,14.2,14.2,14.2H506h112.5v-73.2H618.2z"/>
<path class="st8" d="M720.2,425.4L563,373.5c-11.4-3.8-23.7,2.7-27.1,14.2l-9.5,32.3h28.7l9.9-8.4c1.7-1.5,4.3-1.3,5.9,0.3
	l37.3,38.3h0.3h137.9C741.8,438.7,732.4,429.4,720.2,425.4z"/>
<path class="st8" d="M485.1,420.7H300.5L257,404.5c-4.5-1.7-9.4-2-14.1-1l-28.2,6.3"/>
<path class="st8" d="M485.1,420.7"/>
<path class="st8" d="M452.3,523.4h43.6h112.5v-73.2h-0.3l-36-37c-2.3-2.4-6.1-2.6-8.6-0.4l-8.4,7.2h-28.7l-0.2,0.7h-33.1"/>
<path class="st8" d="M206.3,411.8l-139,31.2C54.8,445.7,46,456.8,46,469.5V482c0,15,12.2,27.2,27.2,27.2h176.9h50.5
	c0,7.8,6.4,14.2,14.2,14.2h137.6"/>
<path class="st8" d="M746.3,450.2H608.4v73.2H707c23.3,0,42.1-18.8,42.1-42.1v-15.9C749.1,460.1,748.1,455,746.3,450.2z"/>
<g>
	<g>
		
			<ellipse transform="matrix(9.506347e-02 -0.9955 0.9955 9.506347e-02 59.2474 654.6138)" class="st14" cx="389.7" cy="294.7" rx="65.4" ry="71"/>
		<path class="st15" d="M400.8,230.1c-1.8-0.2-3.6-0.3-5.4-0.3c36.3,6,62.4,36.8,59.1,71.1c-3.3,34.3-34.7,59.6-71.5,58.6
			c1.8,0.3,3.6,0.5,5.4,0.7c39.1,3.7,73.5-22.4,76.9-58.3S439.9,233.9,400.8,230.1z"/>
		
			<ellipse transform="matrix(9.507215e-02 -0.9955 0.9955 9.507215e-02 58.8784 654.1221)" class="st16" cx="389.2" cy="294.7" rx="65.2" ry="65.6"/>
		<path class="st8" d="M439.4,342.1c-14.3,12.7-34.4,19.8-56,17.7c-39.1-3.7-67.9-35.9-64.5-71.8c3.4-35.9,37.9-62,76.9-58.3
			s67.9,35.9,64.5,71.8c-1.4,15-8.3,28.3-18.6,38.4"/>
		<path class="st14" d="M402.5,211.9c-32-3.1-61.1,15.6-72.6,44l-4.8-0.5c-9.2-0.9-17.5,6-18.4,15.2l-3.8,39.7
			c-0.9,9.2,6,17.5,15.2,18.4l90.1,8.6c9.2,0.9,17.5-6,18.4-15.2l1.4-15.2l20.5,2c7.1,0.7,13.5-4.6,14.1-11.7l1.7-17.5
			c1-10.6-1-21.3-6-30.6C447.6,228.9,427.1,214.3,402.5,211.9z"/>
		<path class="st17" d="M465.6,249.9c-10.8-20.3-31.3-34.9-55.9-37.3c-2.4-0.2-4.8-0.3-7.2-0.3c21.4,4.2,39.1,17.9,48.8,36.2
			c5,9.4,7,20.1,6,30.6l-1.7,17.5c-0.7,7.1-7,12.4-14.1,11.7l14.3,1.4c7.1,0.7,13.5-4.6,14.1-11.7l1.7-17.5
			C472.6,270,470.6,259.3,465.6,249.9z"/>
		<path class="st17" d="M419.6,321.5c-0.9,9.2-9.2,16.1-18.4,15.2l14.3,1.4c9.2,0.9,17.5-6,18.4-15.2l1.4-15.2l-14.3-1.4
			L419.6,321.5z"/>
		<path class="st3" d="M455.7,296.6l1.7-17.5c1-10.6-1-21.3-6-30.6c-9.8-18.3-27.4-32-48.8-36.2c-29.1,0.1-54.8,18.1-65.4,44.3
			l-4.8-0.5c-9.2-0.9-17.5,6-18.4,15.2l-3.8,39.7c-0.9,9.2,6,17.5,15.2,18.4l75.8,7.2c9.2,0.9,17.5-6,18.4-15.2l1.4-15.2l14.3,1.4
			l6.2,0.6C448.6,309,455,303.7,455.7,296.6z"/>
		<path class="st8" d="M338.5,240.6c-3.4,4.7-6.3,9.8-8.5,15.3l-4.8-0.5c-9.2-0.9-17.5,6-18.4,15.2l-1.4,14.2"/>
		<path class="st8" d="M344.1,234c-1.3,1.4-2.6,2.8-3.7,4.3"/>
		<path class="st8" d="M348.3,229.8c-0.8,0.7-1.5,1.4-2.3,2.2"/>
		<path class="st8" d="M464.6,278.2c0.8-8.3-0.5-16.7-3.9-24.4c-10.1-22.6-31.7-39.3-58.2-41.9c-19.4-1.9-37.7,4.3-51.7,15.7"/>
		<path class="st8" d="M304.8,291.5l-1.8,18.9c-0.9,9.2,6,17.5,15.2,18.4l90.1,8.6c9.2,0.9,17.5-6,18.4-15.2l1.4-15.2l20.5,2
			c7.1,0.7,13.5-4.6,14.1-11.7l1.4-14.5"/>
		<path class="st14" d="M394.2,316.7l-91-8.7l3.3-34.4l91,8.7c6.9,0.7,12,6.9,11.4,13.8l-0.9,9.2
			C407.3,312.2,401.1,317.3,394.2,316.7z"/>
		<path class="st18" d="M398,282.4l-11.2-1.1c9.4,0.9,16.4,9.4,15.5,18.8v0c-0.9,9.4-9.4,16.4-18.8,15.5l11.2,1.1
			c9.4,0.9,17.9-6.1,18.8-15.5v0C414.4,291.7,407.4,283.3,398,282.4z"/>
		<path class="st19" d="M402.4,300.1L402.4,300.1c0.9-9.4-6.1-17.9-15.5-18.8l-75.2-7.2l-3.3,34.4l75.2,7.2
			C393,316.6,401.5,309.6,402.4,300.1z"/>
		<path class="st8" d="M305.6,283.3"/>
		<path class="st8" d="M305.4,284.8l1.1-11.2l86.4,8.2c9.4,0.9,16.4,9.4,15.5,18.8v0c-0.9,9.4-9.4,16.4-18.8,15.5l-86.4-8.2
			l1.6-17.2"/>
		<path class="st8" d="M428.8,293.1l1-11l12.1,1.2c3.2,0.3,6.1-2.1,6.4-5.3l0.4-4.5c0.3-3.2-2.1-6.1-5.3-6.4l-12.1-1.2l-86.9-8.3"/>
		<path class="st20" d="M389.9,335.6c-0.6,6.7-7.8,11.4-15.9,10.7c-8.2-0.8-14.3-6.8-13.6-13.5L389.9,335.6z"/>
		<circle cx="437.5" cy="274.6" r="2.5"/>
	</g>
	<line class="st21" x1="325.4" y1="285.2" x2="324" y2="299.8"/>
	<line class="st21" x1="331.8" y1="285.8" x2="330.4" y2="300.4"/>
	<line class="st21" x1="338.2" y1="286.4" x2="336.8" y2="301"/>
</g>
<g>
	<circle class="st5" cx="150.7" cy="495.7" r="76.7"/>
	<path class="st0" d="M226.4,458.8c-15.5-28.2-46.1-42.8-76.3-39.2c23.7,2.8,45.8,16.7,58.2,39.2c20.4,37.1,6.8,83.7-30.3,104.1
		c-8.9,4.9-18.3,7.8-27.8,8.9c15.3,1.8,31.3-1,45.9-8.9C233.2,542.5,246.7,495.9,226.4,458.8z"/>
	<path class="st11" d="M208.3,458.8c-12.4-22.6-34.5-36.4-58.2-39.2c-9.5,1.1-18.9,4.1-27.8,8.9c-37.1,20.4-50.7,67-30.3,104.1
		c12.4,22.6,34.5,36.4,58.2,39.2c9.5-1.1,18.9-4.1,27.8-8.9C215.1,542.5,228.7,495.9,208.3,458.8z"/>
	<path class="st8" d="M211.4,542.5c-6.3,8.1-14.3,15.1-23.8,20.4c-37.1,20.4-83.7,6.8-104.1-30.3c-13.6-24.7-12.1-53.7,1.4-76.3"/>
	<path class="st8" d="M89.6,449.4c6.3-8.3,14.4-15.5,24.2-20.9c37.1-20.4,83.7-6.8,104.1,30.3c13.8,25.2,12,54.8-2.2,77.6"/>
	<circle class="st5" cx="150.7" cy="495.7" r="34.4"/>
	<circle class="st5" cx="150.7" cy="495.7" r="14.2"/>
	<circle class="st22" cx="156.3" cy="495.7" r="34.4"/>
	<circle class="st5" cx="150.7" cy="495.7" r="14.2"/>
	<g>
		<line class="st8" x1="111.5" y1="430.9" x2="119.7" y2="445.8"/>
		<line class="st8" x1="118.5" y1="427" x2="126.7" y2="441.9"/>
	</g>
	<g>
		<line class="st8" x1="169.4" y1="422.3" x2="164.5" y2="438.6"/>
		<line class="st8" x1="177.1" y1="424.6" x2="172.2" y2="440.9"/>
	</g>
	<g>
		<line class="st8" x1="216.1" y1="457.5" x2="201.1" y2="465.5"/>
		<line class="st8" x1="219.9" y1="464.6" x2="204.8" y2="472.6"/>
	</g>
	<g>
		<line class="st8" x1="223.8" y1="515.5" x2="207.6" y2="510.4"/>
		<line class="st8" x1="221.4" y1="523.2" x2="205.1" y2="518.1"/>
	</g>
	<g>
		<line class="st8" x1="187.9" y1="561.7" x2="180.1" y2="546.5"/>
		<line class="st8" x1="180.7" y1="565.4" x2="173" y2="550.2"/>
	</g>
	<g>
		<line class="st8" x1="129.8" y1="568.5" x2="135.1" y2="552.4"/>
		<line class="st8" x1="122.1" y1="566" x2="127.5" y2="549.8"/>
	</g>
	<g>
		<line class="st8" x1="84.2" y1="531.9" x2="99.4" y2="524.4"/>
		<line class="st8" x1="80.6" y1="524.6" x2="95.9" y2="517.1"/>
	</g>
	<g>
		<line class="st8" x1="78.3" y1="473.7" x2="94.3" y2="479.3"/>
		<line class="st8" x1="80.9" y1="466" x2="97" y2="471.7"/>
	</g>
	<circle class="st8" cx="150.7" cy="495.7" r="34.4"/>
	<circle class="st5" cx="156.3" cy="495.7" r="14.2"/>
	<circle class="st8" cx="150.7" cy="495.7" r="14.2"/>
</g>
<g>
	<path class="st8" d="M366.4,523.4v-45.5h20.2c5.4,0,9.7-4.4,9.7-9.7v-7.6c0-5.4-4.4-9.7-9.7-9.7h-20.2v-30.1"/>
	<circle cx="378" cy="464.2" r="4.1"/>
</g>
<g>
	<g>
		<path class="st5" d="M339.8,382.9c-0.7-0.3-1.4-0.7-2.2-0.9c-9.1-3-18.9,1.9-22,11c-3,9.1,1.9,18.9,11,22l4,1.3l10.9-32.8
			L339.8,382.9z"/>
		<path class="st5" d="M396.4,423.6l34-37.4l-0.1-0.1c4.8-7,3.8-16.7-2.7-22.6c-6.5-5.9-16.2-5.9-22.8-0.5l0,0
			c-0.6,0.5-1.2,1.1-1.7,1.7c-0.5,0.6-1,1.2-1.5,1.9L375.8,395l-34.3-11.5l-10.9,32.8l44,14.7c0.6,0.2,1.1,0.4,1.7,0.6l1.8,0.6
			l0.1-0.2C385.5,433.4,392.8,430,396.4,423.6z"/>
		<path class="st16" d="M343.7,385.1c-0.7-0.3-1.4-0.7-2.2-0.9c-9.1-3-18.9,1.9-22,11c-3,9.1,1.9,18.9,11,22l4,1.3l10.9-32.8
			L343.7,385.1z"/>
		<path class="st5" d="M400.4,425.8l33.8-37.5c4.8-7,3.8-16.7-2.7-22.6c-6.5-5.9-16.2-5.9-22.8-0.5l0,0c-0.6,0.5-1.2,1.1-1.7,1.7
			c-0.5,0.6-1,1.2-1.5,1.9l-25.8,28.4l-34.3-11.5l-10.9,32.8l44,14.7c0.6,0.2,1.1,0.4,1.7,0.6l1.8,0.6l0.1-0.2
			C389.4,435.5,396.7,432.1,400.4,425.8z"/>
		<path class="st8" d="M361.2,426.5l13.4,4.5c0.6,0.2,1.1,0.4,1.7,0.6l1.8,0.6l0.1-0.2c7.3,1.4,14.6-2,18.2-8.4l33.8-37.5
			c4.8-7,3.8-16.7-2.7-22.6c-6.5-5.9-16.2-5.9-22.8-0.5l0,0c-0.6,0.5-1.2,1.1-1.7,1.7c-0.5,0.6-1,1.2-1.5,1.9L375.8,395l-36-12
			c-0.7-0.3-1.4-0.7-2.2-0.9c-9.1-3-18.9,1.9-22,11c-3,9.1,1.9,18.9,11,22l4,1.3l26.7,8.9"/>
		<line class="st8" x1="330.6" y1="416.3" x2="341.5" y2="383.5"/>
	</g>
	<line class="st8" x1="349.7" y1="391.1" x2="364.7" y2="396"/>
	<line class="st8" x1="367.5" y1="397" x2="372.2" y2="398.5"/>
</g>
<g>
	<circle class="st5" cx="612.7" cy="489.3" r="83"/>
	<path class="st0" d="M694.6,449.4c-16.8-30.6-50-46.4-82.6-42.5c25.7,3.1,49.6,18.1,63.1,42.5c22.1,40.2,7.4,90.7-32.8,112.7
		c-9.6,5.3-19.9,8.5-30.1,9.7c16.6,2,33.9-1,49.7-9.7C702,540,716.7,489.6,694.6,449.4z"/>
	<path class="st11" d="M675.1,449.4c-13.4-24.4-37.3-39.4-63.1-42.5c-10.3,1.2-20.5,4.4-30.1,9.7c-40.2,22.1-54.9,72.5-32.8,112.7
		c13.4,24.4,37.3,39.4,63.1,42.5c10.3-1.2,20.5-4.4,30.1-9.7C682.5,540,697.1,489.6,675.1,449.4z"/>
	<path class="st8" d="M678.4,540c-6.8,8.8-15.5,16.4-25.8,22.1c-40.2,22.1-90.7,7.4-112.7-32.8c-14.7-26.8-13.1-58.2,1.5-82.6"/>
	<path class="st8" d="M546.5,439.1c6.8-9,15.6-16.8,26.2-22.6c40.2-22.1,90.7-7.4,112.7,32.8c15,27.3,13,59.4-2.4,84"/>
	<circle class="st5" cx="612.7" cy="489.3" r="37.2"/>
	<circle class="st5" cx="612.7" cy="489.3" r="15.4"/>
	<circle class="st22" cx="618.7" cy="489.3" r="37.2"/>
	<circle class="st5" cx="612.7" cy="489.3" r="15.4"/>
	<g>
		<line class="st8" x1="570.2" y1="419.2" x2="579.1" y2="435.3"/>
		<line class="st8" x1="577.8" y1="414.9" x2="586.7" y2="431.1"/>
	</g>
	<g>
		<line class="st8" x1="632.9" y1="409.9" x2="627.6" y2="427.5"/>
		<line class="st8" x1="641.3" y1="412.3" x2="636" y2="430"/>
	</g>
	<g>
		<line class="st8" x1="683.5" y1="448" x2="667.2" y2="456.6"/>
		<line class="st8" x1="687.6" y1="455.7" x2="671.3" y2="464.3"/>
	</g>
	<g>
		<line class="st8" x1="691.8" y1="510.8" x2="674.3" y2="505.2"/>
		<line class="st8" x1="689.2" y1="519.1" x2="671.6" y2="513.5"/>
	</g>
	<g>
		<line class="st8" x1="652.9" y1="560.8" x2="644.6" y2="544.4"/>
		<line class="st8" x1="645.2" y1="564.8" x2="636.8" y2="548.3"/>
	</g>
	<g>
		<line class="st8" x1="590" y1="568.1" x2="595.8" y2="550.7"/>
		<line class="st8" x1="581.7" y1="565.5" x2="587.5" y2="547.9"/>
	</g>
	<g>
		<line class="st8" x1="540.6" y1="528.5" x2="557.1" y2="520.4"/>
		<line class="st8" x1="536.7" y1="520.7" x2="553.3" y2="512.5"/>
	</g>
	<g>
		<line class="st8" x1="534.2" y1="465.5" x2="551.6" y2="471.5"/>
		<line class="st8" x1="537" y1="457.2" x2="554.5" y2="463.3"/>
	</g>
	<circle class="st8" cx="612.7" cy="489.3" r="37.2"/>
	<circle class="st5" cx="618.7" cy="489.3" r="15.4"/>
	<circle class="st8" cx="612.7" cy="489.3" r="15.4"/>
</g>
<line class="st23" x1="247.6" y1="500.7" x2="273.1" y2="500.7"/>
<line class="st23" x1="278.9" y1="500.7" x2="285.9" y2="500.7"/>
<g>
	<line class="st23" x1="441" y1="449.7" x2="441" y2="473.5"/>
	<line class="st23" x1="452.8" y1="449.7" x2="452.8" y2="473.5"/>
	<line class="st23" x1="464.7" y1="449.7" x2="464.7" y2="473.5"/>
</g>
</svg>
