<svg xmlns:xlink="http://www.w3.org/1999/xlink" xmlns="http://www.w3.org/2000/svg" version="1.1" viewBox="0 0 1024 1024" height="1024px" width="1024px">
    <title>打call</title>
    <defs>
        <radialGradient id="radialGradient-1" r="72.3625638%" fy="27.6374362%" fx="50%" cy="27.6374362%" cx="50%">
            <stop offset="0%" stop-color="#FFF5AA"></stop>
            <stop offset="27.1219841%" stop-color="#FFEB96"></stop>
            <stop offset="100%" stop-color="#FFA60F"></stop>
        </radialGradient>
        <radialGradient id="radialGradient-2" gradientTransform="translate(0.242344,0.316252),scale(0.722222,1.000000),rotate(33.095118),scale(1.000000,0.981044),translate(-0.242344,-0.316252)" r="125.221555%" fy="31.6252015%" fx="24.2343632%" cy="31.6252015%" cx="24.2343632%">
            <stop offset="0%" stop-color="#FFC6CC"></stop>
            <stop offset="100%" stop-color="#FF96A5"></stop>
        </radialGradient>
        <filter id="filter-3" filterUnits="objectBoundingBox" height="197.3%" width="198.8%" y="-48.7%" x="-49.4%">
            <feGaussianBlur in="SourceGraphic" stdDeviation="32.4378201"></feGaussianBlur>
        </filter>
        <filter id="filter-4" filterUnits="objectBoundingBox" height="197.3%" width="198.8%" y="-48.7%" x="-49.4%">
            <feGaussianBlur in="SourceGraphic" stdDeviation="32.4378201"></feGaussianBlur>
        </filter>
        <radialGradient id="radialGradient-5" gradientTransform="translate(0.879896,0.500000),scale(0.757963,1.000000),rotate(109.750978),scale(1.000000,2.770357),translate(-0.879896,-0.500000)" r="59.4876006%" fy="50%" fx="87.9896383%" cy="50%" cx="87.9896383%">
            <stop offset="0%" stop-color="#525252"></stop>
            <stop offset="38.7963857%" stop-color="#302838"></stop>
            <stop offset="100%" stop-color="#241E2B"></stop>
        </radialGradient>
    </defs>
    <g fill-rule="evenodd" fill="none" stroke-width="1" stroke="none" id="打call">
        <circle r="389.253841" cy="512.176106" cx="512.176106" fill="url(#radialGradient-1)" id="椭圆形"></circle>
        <ellipse ry="44.3885959" rx="61.4611328" cy="495.10357" cx="751.191623" fill="url(#radialGradient-2)" id="椭圆形"></ellipse>
        <ellipse ry="44.3885959" rx="61.4611328" cy="495.10357" cx="273.16059" transform="translate(273.160590, 495.103570) scale(-1, 1) translate(-273.160590, -495.103570)" fill="url(#radialGradient-2)" id="椭圆形备份-2"></ellipse>
        <rect rx="61.4611328" height="669.243446" width="122.922266" y="298.570448" x="129.060891" transform="translate(190.522024, 633.192171) rotate(-11.000000) translate(-190.522024, -633.192171)" fill="#FF5E99" id="矩形"></rect>
        <rect rx="61.4611328" height="669.243446" width="122.922266" y="298.687639" x="771.217494" transform="translate(832.678627, 633.309362) rotate(10.000000) translate(-832.678627, -633.309362)" fill="#02D4D6" id="矩形备份"></rect>
        <g transform="translate(88.777192, 669.243446)" id="编组-3">
            <path filter="url(#filter-3)" fill="#FA8102" id="路径-3" d="M74.2260837,65.0377979 C124.02649,44.7648322 159.692762,49.0897511 181.2249,78.0125546 C202.757038,106.935358 211.61527,145.808263 207.799597,194.63127 L234.918107,220.809724 C259.583447,175.491267 263.506959,133.847595 246.688646,95.8787109 C221.461175,38.9253841 163.002125,20.812677 135.445626,20.812677 C117.074627,20.812677 91.9190672,26.850246 59.9789467,38.9253841 L74.2260837,65.0377979 Z"></path>
            <path transform="translate(683.940345, 120.811201) scale(-1, 1) translate(-683.940345, -120.811201)" filter="url(#filter-4)" fill="#FA8102" id="路径-3备份" d="M599.718769,65.0377979 C649.519175,44.7648322 685.185448,49.0897511 706.717585,78.0125546 C728.249723,106.935358 737.107956,145.808263 733.292282,194.63127 L760.410793,220.809724 C785.076132,175.491267 788.999645,133.847595 772.181331,95.8787109 C746.95386,38.9253841 688.49481,20.812677 660.938312,20.812677 C642.567312,20.812677 617.411752,26.850246 585.471632,38.9253841 L599.718769,65.0377979 Z"></path>
            <circle r="129.75128" cy="129.75128" cx="129.75128" fill="url(#radialGradient-1)" id="椭圆形"></circle>
            <circle r="129.75128" cy="129.75128" cx="716.363647" fill="url(#radialGradient-1)" id="椭圆形备份"></circle>
        </g>
        <path fill-rule="nonzero" fill="url(#radialGradient-5)" id="路径-49" d="M288.231728,285.824249 C318.339809,281.48788 353.328942,292.895407 385.23028,313.470488 C398.026156,321.723313 409.298653,330.935393 416.849338,339.212461 C420.97142,343.731092 424.011261,347.975422 425.803579,352.067848 C429.204218,359.832573 428.719065,368.427424 420.887974,374.036246 C416.056566,377.49662 411.686468,377.867233 405.647224,376.913127 L404.222953,376.670236 C402.695214,376.392359 395.213081,374.739514 391.768783,374.037535 L390.997612,373.883196 C353.656968,366.595247 319.795148,376.588827 288.243092,404.478877 C282.591419,409.474603 273.959997,408.942854 268.964271,403.291181 C263.968545,397.639509 264.500295,389.008087 270.151967,384.012361 C303.897249,354.183636 341.358361,341.014022 381.701065,344.942343 L382.629787,345.04342 L381.476077,344.149668 C378.730263,342.068543 375.802396,339.984962 372.7431,337.946158 L370.424776,336.426187 C343.541715,319.087693 314.541765,309.632823 292.12579,312.861323 C284.659708,313.936638 277.735538,308.755899 276.660222,301.289817 C275.584907,293.823735 280.765646,286.899565 288.231728,285.824249 Z"></path>
        <path transform="translate(681.202703, 346.407157) scale(-1, 1) translate(-681.202703, -346.407157)" fill-rule="nonzero" fill="url(#radialGradient-5)" id="路径-49备份" d="M622.761006,285.824249 C652.869086,281.48788 687.85822,292.895407 719.759558,313.470488 C732.555434,321.723313 743.827931,330.935393 751.378615,339.212461 C755.500698,343.731092 758.540538,347.975422 760.332857,352.067848 C763.733496,359.832573 763.248343,368.427424 755.417252,374.036246 C750.585844,377.49662 746.215746,377.867233 740.176502,376.913127 L738.752231,376.670236 C737.224492,376.392359 729.742359,374.739514 726.29806,374.037535 L725.52689,373.883196 C688.186246,366.595247 654.324425,376.588827 622.77237,404.478877 C617.120697,409.474603 608.489275,408.942854 603.493549,403.291181 C598.497823,397.639509 599.029573,389.008087 604.681245,384.012361 C638.426527,354.183636 675.887639,341.014022 716.230343,344.942343 L717.159065,345.04342 L716.005355,344.149668 C713.25954,342.068543 710.331674,339.984962 707.272378,337.946158 L704.954054,336.426187 C678.070992,319.087693 649.071042,309.632823 626.655068,312.861323 C619.188986,313.936638 612.264815,308.755899 611.1895,301.289817 C610.114184,293.823735 615.294924,286.899565 622.761006,285.824249 Z"></path>
        <path fill-rule="nonzero" fill="#672900" id="路径-51" d="M567.71739,445.815154 C570.423485,438.774151 578.32507,435.260014 585.366073,437.966109 C592.407077,440.672205 595.921214,448.57379 593.215118,455.614793 C577.343106,496.91226 550.906538,519.005121 515.092844,519.005121 C479.20039,519.005121 453.046446,496.810454 437.889472,455.410533 C435.296186,448.327204 438.936085,440.482758 446.019414,437.889472 C453.102743,435.296186 460.947189,438.936085 463.540475,446.019414 C475.052073,477.462317 491.816709,491.689062 515.092844,491.689062 C538.447737,491.689062 555.593443,477.360512 567.71739,445.815154 Z"></path>
    </g>
</svg>