<svg viewBox="0 0 1477 1024" version="1.1" xmlns="http://www.w3.org/2000/svg"><path d="M1114.693494 1.047983c45.092251-3.149948 89.593513 0.787987 133.109791 12.0118 43.516278 11.223814 82.307634 25.203582 116.176071 41.941304 33.867438 16.736722 61.237983 34.458428 82.306633 53.165117 20.872653 18.902686 31.505477 34.655425 31.505477 47.651209 0 12.995784-8.072866 20.675657-24.219598 23.431611-16.146732 2.756954-36.231399 5.119915-60.450996 7.285879-24.219598 2.165964-50.802157 6.103899-79.747676 12.011801-28.944519 5.906902-56.512062 19.099683-82.306634 39.578343-17.130716 12.995784-33.671441 27.172549-49.227182 42.72929-15.555742 15.554742-31.111484 30.71649-46.864222 45.091252-15.555742 14.570758-31.701474 27.960536-48.439196 40.36633-16.736722 12.404794-34.655425 21.856637-53.952105 28.157532-9.64884 3.149948-21.463644 6.497892-35.443411 9.64884-13.980768 3.149948-28.749523 3.937935-44.304265 2.362961-15.555742-1.575974-31.702474-6.694889-48.439195-15.359745-16.934719-8.269863-32.883454-22.840621-47.849206-43.122284-9.64784 12.799788-18.115699 28.157533-25.006585 45.879238-7.089882 17.721706-13.192781 36.822389-18.509693 57.300049-5.316912 20.47866-10.041833 41.744307-13.783771 63.798941-3.740938 22.052634-6.694889 42.729291-8.859853 62.02497-2.166964 16.146732-3.741938 36.231399-4.923918 60.450996-0.983984 24.219598-1.377977 48.045202-0.786987 71.870807 0.58999 23.629608 1.968967 45.486245 3.937935 65.373915 2.165964 19.88767 5.316912 34.064434 9.64884 42.72929 5.315912 9.64784 8.072866 17.720706 8.072866 24.219598 0 5.315912-2.756954 10.435827-8.072866 15.358745-5.316912 4.921918-15.555742 7.284879-30.71749 7.284879-17.131716 0-28.749523-2.362961-34.656425-7.284879-5.906902-4.922918-8.859853-10.042833-8.859853-15.359745-0.984984-6.497892 0.983984-13.979768 6.496892-22.643624 5.316912-10.82982 8.860853-23.432611 10.436827-38.003369 1.574974-14.570758 2.165964-30.1265 1.574974-46.864222a2298.481842 2298.481842 0 0 0-2.362961-50.802156c-0.984984-17.130716-1.574974-33.867438-1.574974-50.01417-16.934719-34.262431-33.671441-63.403947-49.818173-87.033555-16.145732-23.629608-33.867438-46.273232-53.165117-67.735876-11.813804 25.794572-25.597575 45.091251-41.153317 58.088036-15.555742 12.995784-31.505477 21.856637-47.652209 26.582559-16.145732 4.921918-31.504477 7.087882-45.879238 6.497892-14.570758-0.59099-27.172549-1.969967-38.003369-3.938935-19.29668-3.149948-37.609376-9.450843-54.937088-18.509693a592.13917 592.13917 0 0 1-51.589144-30.71649c-17.131716-11.223814-34.656425-23.432611-52.37813-36.231398-17.721706-12.995784-35.836405-24.219598-53.952105-33.868438-27.961536-16.145732-56.709059-24.809588-86.245568-25.794572-29.53651-0.983984-56.513062-0.196997-80.73266 2.362961-24.219598 2.756954-44.107268 3.740938-59.663009 3.149948C7.875869 425.581935 0 418.296056 0 404.315288c0-13.979768 8.860853-31.701474 26.582559-53.164118 17.721706-21.463644 41.350314-42.729291 70.886823-63.79894 29.53651-20.871653 64.191934-39.77534 103.967274-56.512062s81.716643-27.173549 125.823911-31.505477c67.735875-6.497892 123.854944-2.952951 168.553202 10.436826 44.697258 13.389778 79.550679 32.489461 104.754261 57.299049 25.598575 25.007585 41.350314 53.362114 47.849205 85.655578 6.497892 32.292464 5.315912 64.585928-3.150947 96.878392 34.459428 31.111484 68.326866 70.886823 101.604313 119.326019 5.316912-52.771124 18.705689-105.936241 40.36633-159.692349 8.663856-18.311696 16.736722-33.867438 24.219598-46.864222 7.481876-12.995784 16.736722-26.975552 27.369545-41.941304-17.327712-31.110484-26.188565-64.388931-26.582559-99.831342-0.58999-35.443412 9.64884-68.918856 30.717491-100.02934 21.06965-31.111484 53.559111-57.891039 97.666378-79.944672 43.910271-22.053634 101.998307-35.246415 174.06711-39.578343z m-480.848017 443.632635c-60.057003-51.589144-123.657947-84.866591-190.212842-100.02834-66.751892-14.965752-135.471751-13.389778-206.556571 4.921919-2.164964 0-2.755954 0.196997-1.574974 0.787986 0.984984 0.58999 2.756954 0.787987 4.922919 0.787987a798.203749 798.203749 0 0 1 95.106421-3.938934c32.293464 0.59099 64.782925 5.316912 97.666378 14.571758 32.883454 9.05785 65.372915 22.643624 97.666379 40.36533 32.292464 17.721706 63.994938 41.745307 95.106421 71.871807l7.875869-29.339513z m592.10117-306.387914c2.165964 0 3.740938-0.196997 4.922919-0.787987 0.983984-0.58999 0-0.786987-3.149948-0.786987-78.566696-7.482876-149.453519 4.528925-212.857466 36.230399-63.404947 31.702474-119.326019 78.172702-167.765215 139.607682l16.145732 27.369546c28.945519-39.77434 58.876023-72.658794 89.593512-98.453366 30.71749-25.794572 61.828974-46.273232 93.530448-61.238983 31.702474-14.963752 62.61696-25.596575 92.74346-31.504477s58.876023-9.451843 86.836558-10.435827z m-841.976022 824.255316c-8.664856-7.482876-5.907902-16.343729 8.072866-26.582558 13.979768-10.23983 34.458428-20.675657 61.237984-31.505477 26.976552-10.82982 57.299049-21.856637 91.168486-33.079451 33.867438-11.224814 66.357898-21.266647 97.665379-29.930503 13.980768-4.331928 25.007585-3.938935 33.080451 0.786987 8.073866 4.922918 15.555742 11.026817 22.644624 18.509692 7.088882 7.482876 15.555742 14.767755 25.794572 21.856637 10.23983 7.088882 25.007585 10.435827 44.304264 10.435827 19.29768 0 34.065434-3.543941 44.304264-10.435827 10.23983-6.891886 19.099683-13.979768 26.582559-20.872653 7.482876-7.087882 14.965752-12.995784 22.644624-17.721706 7.482876-4.921918 18.312696-5.709905 32.292464-2.361961 31.111484 8.663856 63.994938 18.902686 98.454366 30.71749 34.459428 11.813804 65.372915 23.431611 92.74346 34.655425 27.369546 11.223814 48.045202 22.053634 62.02597 32.292464 13.979768 10.23983 15.555742 17.919703 4.922918 23.432611-25.795572 13.979768-60.450996 25.597575-103.968273 34.655425-43.516278 9.05785-90.773493 15.949735-141.969644 20.084666-50.999153 4.331928-103.770277 6.497892-158.117375 6.497892-54.346098 0-105.738245-2.362961-153.981443-7.285879-48.439196-4.921918-91.364483-11.813804-128.973859-20.871653-38.003369-9.451843-64.782925-20.47866-80.928657-33.277448z" fill="#0DAA66" data-spm-anchor-id="a313x.search_index.i1.i0.450a3a81QcS0aR"></path></svg>